<?xml version="1.0" encoding="UTF-8" standalone="no"?>
<svg
   xmlns:dc="http://purl.org/dc/elements/1.1/"
   xmlns:cc="http://creativecommons.org/ns#"
   xmlns:rdf="http://www.w3.org/1999/02/22-rdf-syntax-ns#"
   xmlns:svg="http://www.w3.org/2000/svg"
   xmlns="http://www.w3.org/2000/svg"
   id="svg46"
   xml:space="preserve"
   viewBox="0 0 1024 768"
   y="0px"
   x="0px"
   version="1.1"><metadata
     id="metadata50"><rdf:RDF><cc:Work
         rdf:about=""><dc:format>image/svg+xml</dc:format><dc:type
           rdf:resource="http://purl.org/dc/dcmitype/StillImage" /></cc:Work></rdf:RDF></metadata><defs
     id="defs10"><linearGradient
       y2="0"
       x2="0"
       gradientUnits="userSpaceOnUse"
       id="gradient"><stop
         id="stop2"
         stop-opacity="1"
         stop-color="#FFFFFF"
         offset="0" /><stop
         id="stop4"
         stop-opacity="0"
         stop-color="#FFFFFF"
         offset="1" /><animate
         repeatCount="1"
         values="0; 1024; 1024"
         to="1024"
         from="0"
         dur="4s"
         attributeName="x2" /></linearGradient><mask
       maskUnits="userSpaceOnUse"
       id="mask"><rect
         id="rect7"
         fill="url(#gradient)"
         height="768"
         width="1024" /></mask></defs><g
     id="g22"
     mask="url(#mask)"><g
       transform="matrix(1.0684,0,0,1.0684,-37.331,-27.575)"
       id="logo-group"><path
         stroke-miterlimit="2"
         d="m 396.78,408.48 q -6.75,0 -11.52,-2.88 -4.68,-2.88 -7.11,-7.83 -2.43,-4.95 -2.43,-10.98 0,-5.31 2.43,-10.17 2.52,-4.95 7.11,-8.01 4.59,-3.06 10.53,-3.06 8.01,0 12.33,4.14 4.32,4.05 4.95,10.98 0,2.97 -1.62,4.05 -1.62,1.08 -4.68,1.08 H 384.9 q 0,8.37 3.42,13.32 3.51,4.86 10.8,4.86 3.87,0 6.57,-1.62 2.7,-1.71 5.13,-5.67 0.45,-0.45 0.9,-0.45 0.63,0 1.08,0.36 0.9,0.54 0.9,1.62 0,0.54 -0.18,0.81 -2.79,4.5 -7.11,7.02 -4.23,2.43 -9.63,2.43 z m 2.79,-26.1 q 4.59,0 4.86,-3.78 0,-4.14 -2.25,-7.02 -2.25,-2.88 -6.39,-2.88 -4.59,0 -7.56,3.69 -2.97,3.6 -3.33,9.99 z"
         style="font-variant-ligatures:none;fill:#cfca4e;stroke-width:0;stroke-miterlimit:2"
         id="path282281" /><path
         stroke-miterlimit="2"
         d="m 439.8,408.48 q -5.04,0 -9.36,-2.7 -4.32,-2.79 -6.93,-7.65 -2.61,-4.95 -2.61,-11.16 0,-5.58 2.7,-10.53 2.7,-4.95 7.47,-7.92 4.77,-2.97 10.62,-2.97 2.79,0 5.58,0.72 2.79,0.63 4.86,1.8 h 0.27 V 354.3 q 0,-2.34 -0.18,-3.42 -0.09,-1.08 -1.08,-1.89 -0.99,-0.81 -3.33,-0.81 -1.08,0 -1.62,-0.27 -0.54,-0.36 -0.54,-1.53 0,-0.54 0.36,-0.99 0.36,-0.54 1.08,-0.63 5.67,-0.81 9.72,-2.34 1.26,-0.45 2.07,-0.54 h 0.27 q 1.44,0 1.44,1.71 v 55.53 q 0,5.31 7.02,5.31 1.53,0 1.53,1.44 0,1.26 -1.53,1.53 l -14.31,0.99 q -0.63,0 -0.72,-0.45 -0.09,-0.36 -0.09,-1.35 v -3.6 h -0.27 q -2.34,2.43 -5.76,3.96 -3.33,1.53 -6.66,1.53 z m 3.06,-4.5 q 3.15,0 5.31,-1.17 2.25,-1.26 4.23,-3.33 v -23.76 q -0.81,-2.61 -3.42,-4.77 -2.52,-2.16 -6.39,-2.16 -3.51,0 -6.39,2.25 -2.79,2.16 -4.41,6.39 -1.62,4.23 -1.62,9.99 0,6.93 3.24,11.79 3.33,4.77 9.45,4.77 z"
         style="font-variant-ligatures:none;fill:#cfca4e;stroke-width:0;stroke-miterlimit:2"
         id="path282283" /><path
         stroke-miterlimit="2"
         d="m 491.02,408.48 q -6.12,0 -9.72,-3.69 -3.6,-3.69 -3.6,-9.72 v -16.65 q 0,-2.34 -0.17999,-3.42 -0.09,-1.08 -1.08,-1.89 -0.98999,-0.81 -3.33,-0.81 -1.08,0 -1.62,-0.27 -0.54001,-0.36 -0.54001,-1.53 0,-0.54 0.36001,-0.99 0.36,-0.54 1.08,-0.63 5.67,-0.81 9.72,-2.34 1.26,-0.45 2.07,-0.54 h 0.27 q 1.44,0 1.44,1.71 v 27.27 q 0,4.14 2.61,6.39 2.61,2.16 6.03,2.16 4.23,0 7.2,-2.07 2.97,-2.07 3.96,-4.14 v -18.9 q 0,-2.34 -0.18,-3.42 -0.09,-1.08 -1.08,-1.89 -0.99,-0.81 -3.33,-0.81 -1.08,0 -1.62,-0.27 -0.54,-0.36 -0.54,-1.53 0,-0.54 0.36,-0.99 0.36,-0.54 1.08,-0.63 5.67,-0.81 9.72,-2.34 1.26,-0.45 2.07,-0.54 h 0.27 q 1.44,0 1.44,1.71 v 31.14 q 0,5.31 7.11,5.31 1.53,0 1.53,1.71 0,1.26 -1.53,1.53 l -14.49,0.99 q -0.63,0 -0.72,-0.45 -0.09,-0.36 -0.09,-1.35 v -5.04 h -0.18 q -2.61,2.43 -4.23,3.78 -1.62,1.26 -4.23,2.16 -2.52,0.99 -6.03,0.99 z"
         style="font-variant-ligatures:none;fill:#cfca4e;stroke-width:0;stroke-miterlimit:2"
         id="path282285" /><path
         stroke-miterlimit="2"
         d="m 552.29,426.12 q -0.63,0 -0.99,-0.54 -0.36,-0.54 -0.36,-1.26 0.09,-1.17 0.45,-1.44 0.45,-0.18 1.62,-0.18 2.16,0 3.15,-0.81 0.99,-0.81 1.17,-1.98 0.27,-1.17 0.27,-3.33 v -13.23 h -0.27 q -1.89,2.07 -5.04,3.6 -3.15,1.53 -6.93,1.53 -5.22,0 -9.63,-2.7 -4.41,-2.7 -7.02,-7.74 -2.52,-5.04 -2.52,-11.52 0,-5.76 2.88,-10.53 2.88,-4.86 7.65,-7.65 4.86,-2.79 10.26,-2.79 3.96,0 6.57,0.99 2.7,0.9 4.23,1.89 1.62,0.9 2.16,1.17 h 0.45 q 0.27,-0.54 0.9,-1.89 0.63,-1.44 1.35,-2.25 0.72,-0.9 1.53,-0.9 0.81,0 1.26,0.54 0.45,0.45 0.45,1.26 v 50.22 q 0,2.16 0.18,3.33 0.18,1.17 1.17,1.98 0.99,0.81 3.24,0.81 h 0.54 q 0.81,0 1.08,0.27 0.36,0.27 0.45,1.35 0,0.72 -0.36,1.26 -0.36,0.54 -1.08,0.54 -5.31,-0.27 -9.45,-0.27 -4.05,0 -9.36,0.27 z m -3.96,-22.05 q 2.97,0 5.13,-1.08 2.25,-1.17 4.14,-3.15 v -24.39 q -0.9,-2.7 -3.42,-4.68 -2.52,-2.07 -6.75,-2.07 -3.42,0 -6.21,2.34 -2.79,2.25 -4.41,6.48 -1.53,4.23 -1.53,9.9 0,7.11 3.15,11.88 3.24,4.77 9.9,4.77 z"
         style="font-variant-ligatures:none;fill:#083a67;stroke-width:0;stroke-miterlimit:2"
         id="path282287" /><path
         stroke-miterlimit="2"
         d="m 594.38,408.48 q -6.12,0 -9.72,-3.69 -3.6,-3.69 -3.6,-9.72 v -16.65 q 0,-2.34 -0.18,-3.42 -0.09,-1.08 -1.08,-1.89 -0.99,-0.81 -3.33,-0.81 -1.08,0 -1.62,-0.27 -0.54,-0.36 -0.54,-1.53 0,-0.54 0.36,-0.99 0.36,-0.54 1.08,-0.63 5.67,-0.81 9.72,-2.34 1.26,-0.45 2.07,-0.54 h 0.27 q 1.44,0 1.44,1.71 v 27.27 q 0,4.14 2.61,6.39 2.61,2.16 6.03,2.16 4.23,0 7.2,-2.07 2.97,-2.07 3.96,-4.14 v -18.9 q 0,-2.34 -0.18,-3.42 -0.09,-1.08 -1.08,-1.89 -0.99,-0.81 -3.33,-0.81 -1.08,0 -1.62,-0.27 -0.54,-0.36 -0.54,-1.53 0,-0.54 0.36,-0.99 0.36,-0.54 1.08,-0.63 5.67,-0.81 9.72,-2.34 1.26,-0.45 2.07,-0.54 h 0.27 q 1.44,0 1.44,1.71 v 31.14 q 0,5.31 7.11,5.31 1.53,0 1.53,1.71 0,1.26 -1.53,1.53 l -14.49,0.99 q -0.63,0 -0.72,-0.45 -0.09,-0.36 -0.09,-1.35 v -5.04 h -0.18 q -2.61,2.43 -4.23,3.78 -1.62,1.26 -4.23,2.16 -2.52,0.99 -6.03,0.99 z"
         style="font-variant-ligatures:none;fill:#083a67;stroke-width:0;stroke-miterlimit:2"
         id="path282289" /><path
         stroke-miterlimit="2"
         d="m 640.63,408.48 q -5.4,0 -8.73,-3.06 -3.33,-3.06 -3.33,-7.65 0,-5.67 3.78,-8.46 3.78,-2.88 9,-3.69 5.22,-0.9 13.5,-1.35 v -7.11 q 0,-4.41 -2.25,-6.66 -2.16,-2.34 -7.02,-2.34 -2.79,0 -4.86,1.71 -2.07,1.71 -2.07,4.59 0,1.44 0.63,2.43 0.72,0.9 1.44,1.53 0.81,0.63 0.81,0.72 0,0.54 -1.17,1.44 -1.08,0.81 -2.7,0.81 -2.7,0 -4.32,-1.98 -1.53,-1.98 -1.53,-4.68 0,-4.68 4.14,-6.93 4.23,-2.25 10.17,-2.25 7.38,0 11.97,2.79 4.68,2.79 4.68,10.35 v 20.97 q 0.09,1.89 1.17,3.6 1.08,1.71 3.51,1.71 0.72,0 0.99,0.27 0.36,0.27 0.36,1.17 0,1.08 -1.71,1.53 -1.62,0.54 -3.24,0.54 -3.42,0 -6.03,-1.98 -2.61,-1.98 -2.97,-5.31 -1.89,3.51 -5.85,5.4 -3.87,1.89 -8.37,1.89 z m 2.88,-4.86 q 3.06,0 5.67,-1.53 2.61,-1.53 4.14,-4.14 1.53,-2.7 1.53,-5.94 v -5.13 q -9.45,0.72 -13.32,3.06 -3.87,2.34 -3.87,7.56 0,6.12 5.85,6.12 z"
         style="font-variant-ligatures:none;fill:#083a67;stroke-width:0;stroke-miterlimit:2"
         id="path282291" /><path
         stroke-miterlimit="2"
         d="m 674.57,407.67 q -0.63,0 -1.08,-0.54 -0.36,-0.54 -0.36,-1.26 0.09,-1.17 0.54,-1.35 0.45,-0.27 1.62,-0.27 2.34,0 3.33,-0.81 0.99,-0.81 1.08,-1.89 0.18,-1.08 0.18,-3.42 v -20.61 q 0,-2.34 -0.18,-3.42 -0.09,-1.08 -1.08,-1.89 -0.99,-0.81 -3.33,-0.81 -1.08,0 -1.62,-0.27 -0.54,-0.36 -0.54,-1.53 0,-0.54 0.36,-0.99 0.36,-0.54 1.08,-0.63 5.85,-0.9 9.63,-2.34 1.53,-0.45 2.07,-0.54 h 0.27 q 1.44,0 1.44,1.71 v 5.67 h 0.27 q 2.61,-2.43 4.23,-3.69 1.62,-1.35 4.14,-2.25 2.61,-0.99 6.12,-0.99 6.12,0 9.72,3.69 3.6,3.69 3.6,9.72 v 19.17 q 0,2.34 0.18,3.42 0.18,1.08 1.17,1.89 0.99,0.81 3.33,0.81 h 0.54 q 0.72,0 1.08,0.27 0.36,0.27 0.45,1.35 0,0.72 -0.45,1.26 -0.36,0.54 -0.99,0.54 -5.22,-0.27 -9.45,-0.27 -4.05,0 -9.36,0.27 -0.63,0 -1.08,-0.54 -0.36,-0.54 -0.36,-1.26 0.09,-1.17 0.45,-1.35 0.45,-0.27 1.62,-0.27 2.34,0 3.33,-0.81 0.99,-0.81 1.17,-1.89 0.18,-1.08 0.18,-3.42 v -19.08 q 0,-4.14 -2.61,-6.3 -2.61,-2.25 -6.03,-2.25 -4.14,0 -7.11,2.07 -2.97,1.98 -4.05,4.14 v 21.42 q 0,2.34 0.18,3.42 0.18,1.08 1.17,1.89 0.99,0.81 3.33,0.81 h 0.54 q 0.72,0 1.08,0.27 0.36,0.27 0.45,1.35 0,0.72 -0.36,1.26 -0.36,0.54 -1.08,0.54 -5.22,-0.27 -9.45,-0.27 -4.05,0 -9.36,0.27 z"
         style="font-variant-ligatures:none;fill:#083a67;stroke-width:0;stroke-miterlimit:2"
         id="path282293" /><path
         stroke-miterlimit="2"
         d="m 742.86,408.93 q -4.41,0 -7.56,-3.24 -3.15,-3.24 -3.15,-9.27 v -26.46 l -5.22,0.18 q -0.54,0 -0.9,-0.45 -0.36,-0.54 -0.36,-1.17 0,-0.81 0.27,-1.35 0.36,-0.63 0.99,-0.72 3.15,-0.63 4.86,-1.98 1.8,-1.44 2.61,-3.06 0.81,-1.71 1.98,-5.13 0.45,-1.17 1.98,-1.17 0.63,0 1.26,0.36 0.63,0.27 0.63,0.9 l -0.63,10.26 10.53,-0.63 h 0.18 q 1.17,0 1.17,1.71 0,0.99 -0.36,1.89 -0.27,0.81 -0.72,0.81 l -10.08,-0.27 v 27.36 q 0,2.97 1.17,4.95 1.26,1.98 4.05,1.98 2.79,0 4.95,-0.99 1.17,-0.45 1.44,-0.45 0.63,0 0.99,0.54 0.36,0.45 0.72,1.26 0.09,0.18 0.09,0.45 0,0.36 -0.54,0.81 -2.61,1.71 -4.95,2.25 -2.25,0.63 -5.4,0.63 z"
         style="font-variant-ligatures:none;fill:#083a67;stroke-width:0;stroke-miterlimit:2"
         id="path282295" /><path
         style="fill:#083a67;stroke-width:0.5025"
         d="m 320.14,339.96 c -0.79123,-0.006 -1.6964,0 -2.011,0.0131 -0.31487,0.0129 -0.79877,0.0374 -1.0756,0.0545 -0.27688,0.017 -0.72978,0.0497 -1.0064,0.0729 -0.27659,0.0232 -0.74792,0.0673 -1.0477,0.0981 -0.29951,0.031 -0.87169,0.0997 -1.2712,0.15338 -0.39952,0.0534 -1.0282,0.14752 -1.397,0.20899 -0.36879,0.0615 -1.0413,0.18635 -1.4947,0.27743 -0.45317,0.0911 -1.0944,0.22938 -1.4249,0.30733 -0.33024,0.0779 -0.77028,0.18608 -0.97787,0.24028 -0.2073,0.0542 -0.51546,0.1369 -0.6845,0.18355 -0.16903,0.0467 -0.53979,0.15367 -0.8242,0.23777 -0.28414,0.0841 -0.71802,0.21652 -0.9639,0.29447 -0.24586,0.0779 -0.74234,0.24586 -1.1036,0.37327 -0.36097,0.1274 -0.75716,0.26905 -0.88008,0.31487 -0.12293,0.0455 -0.49368,0.1897 -0.8242,0.3199 -0.33023,0.1302 -0.86666,0.35064 -1.1916,0.49005 -0.3252,0.13941 -0.85324,0.37494 -1.1734,0.52355 -0.32046,0.14864 -0.903,0.43166 -1.295,0.62918 -0.39198,0.19726 -1.0206,0.52723 -1.397,0.7331 -0.37633,0.20564 -0.9044,0.50346 -1.1734,0.6619 -0.26878,0.15813 -0.73843,0.44339 -1.0436,0.6342 -0.30509,0.19054 -0.83786,0.53562 -1.1843,0.76692 -0.34644,0.23133 -0.85128,0.57862 -1.122,0.77169 -0.27045,0.19333 -0.66772,0.48334 -0.88289,0.6448 -0.21513,0.16177 -0.59848,0.45709 -0.85214,0.65627 -0.25341,0.19948 -0.67973,0.54451 -0.94686,0.76666 -0.26738,0.2224 -0.68481,0.57863 -0.92787,0.79149 -0.24307,0.21289 -0.61521,0.54702 -0.82727,0.74204 -0.21177,0.19529 -0.71048,0.67612 -1.1078,1.069 -0.39757,0.39282 -0.92168,0.9248 -1.165,1.1824 -0.24335,0.25732 -0.62416,0.6722 -0.84626,0.92199 -0.22212,0.2495 -0.56356,0.6423 -0.75883,0.87279 -0.19529,0.2305 -0.52747,0.6328 -0.73842,0.89405 -0.21066,0.26123 -0.57833,0.73254 -0.81666,1.0477 -0.23833,0.31487 -0.59205,0.79486 -0.78622,1.0665 -0.19389,0.27156 -0.57692,0.83148 -0.85103,1.2444 -0.27408,0.41294 -0.65687,1.0094 -0.85073,1.3254 -0.1939,0.316 -0.4962,0.82451 -0.67195,1.1304 -0.17545,0.30565 -0.46797,0.83229 -0.64988,1.1704 -0.18188,0.33806 -0.51546,0.99183 -0.74149,1.4528 -0.22602,0.46099 -0.5015,1.0393 -0.61245,1.2852 -0.11091,0.24587 -0.31794,0.7236 -0.46043,1.0617 -0.14221,0.33807 -0.366,0.89124 -0.49731,1.2293 -0.13104,0.33806 -0.35175,0.93626 -0.49033,1.3293 -0.1383,0.39339 -0.34589,1.0156 -0.461,1.383 -0.11511,0.36768 -0.27883,0.91335 -0.36404,1.2131 -0.0849,0.2995 -0.21793,0.78983 -0.29504,1.0896 -0.0774,0.29951 -0.20284,0.81526 -0.27855,1.1455 -0.076,0.33024 -0.19529,0.88988 -0.26542,1.2433 -0.0701,0.35342 -0.15897,0.81862 -0.19725,1.0337 -0.0383,0.21513 -0.10757,0.63616 -0.15367,0.93595 -0.0464,0.29951 -0.11511,0.7837 -0.15282,1.0757 -0.038,0.29196 -0.0947,0.77586 -0.12601,1.0756 -0.0313,0.2995 -0.0757,0.77113 -0.0984,1.0477 -0.0229,0.2766 -0.055,0.7228 -0.0712,0.99183 -0.0162,0.26878 -0.0416,0.80938 -0.0562,1.2014 -0.0148,0.39171 -0.0271,1.0958 -0.0271,1.5646 0,0.46853 0.0123,1.1726 0.0271,1.5646 0.0145,0.3917 0.04,0.93234 0.0562,1.2014 0.0162,0.26877 0.0545,0.78425 0.0852,1.1455 0.0307,0.36098 0.0875,0.93315 0.12629,1.2712 0.0385,0.33806 0.10142,0.84098 0.13969,1.1176 0.0386,0.2766 0.11986,0.80465 0.18105,1.1734 0.0612,0.36879 0.17937,1.0108 0.26262,1.4265 0.0833,0.41601 0.20312,0.98179 0.26654,1.2573 0.0634,0.27576 0.15925,0.67722 0.21318,0.89239 0.0539,0.21513 0.1545,0.59848 0.22379,0.85214 0.0693,0.2534 0.21373,0.75631 0.3213,1.1176 0.10756,0.36097 0.28777,0.93314 0.40064,1.2712 0.1126,0.33807 0.30733,0.89546 0.4325,1.2388 0.12544,0.34309 0.34141,0.90771 0.47999,1.2544 0.13886,0.347 0.35622,0.87088 0.48363,1.1642 0.12712,0.29336 0.32381,0.7345 0.43668,0.98038 0.11288,0.24586 0.36405,0.76747 0.55848,1.1595 0.19418,0.39198 0.48614,0.95942 0.64873,1.2614 0.16289,0.30202 0.37997,0.69817 0.48306,0.88008 0.10282,0.18216 0.29392,0.51325 0.42496,0.73621 0.13103,0.22268 0.39422,0.65461 0.58451,0.95973 0.19054,0.30509 0.53561,0.83787 0.76691,1.1843 0.23134,0.34644 0.57863,0.85128 0.77169,1.122 0.19334,0.27045 0.48363,0.66772 0.64511,0.88289 0.16177,0.21513 0.45177,0.5923 0.64426,0.83817 0.19277,0.24587 0.53752,0.67195 0.76636,0.94687 0.22882,0.27492 0.59034,0.69877 0.80355,0.94183 0.21289,0.24307 0.54702,0.61521 0.74204,0.82727 0.19501,0.21177 0.69485,0.72892 1.1109,1.1491 0.41574,0.42021 0.98877,0.98124 1.2729,1.2467 0.28442,0.26542 0.68033,0.62752 0.88008,0.8049 0.19976,0.17714 0.55179,0.48195 0.78229,0.67727 0.23049,0.19529 0.65797,0.54677 0.94992,0.78088 0.29197,0.23441 0.73843,0.58336 0.99184,0.77531 0.25369,0.19222 0.6937,0.51602 0.97786,0.71968 0.28442,0.2034 0.81305,0.56858 1.1754,0.81134 0.36209,0.24279 0.94073,0.61687 1.2863,0.83174 0.34533,0.21457 0.92284,0.55988 1.2832,0.76721 0.36042,0.20759 0.86918,0.49313 1.1304,0.63476 0.26123,0.14165 0.90244,0.46881 1.4249,0.72727 0.52245,0.25844 1.2329,0.59536 1.5786,0.74847 0.34589,0.15339 0.84737,0.36964 1.1148,0.48027 0.26765,0.11092 0.66355,0.27045 0.88008,0.35511 0.2168,0.0844 0.64541,0.24531 0.95274,0.35762 0.30732,0.11231 0.8041,0.28637 1.1036,0.38695 0.2995,0.10059 0.73118,0.24056 0.95857,0.31069 0.2277,0.0704 0.67415,0.20227 0.99183,0.29335 0.31795,0.0908 0.82335,0.22855 1.1229,0.30566 0.29978,0.0774 0.79626,0.19836 1.1036,0.26933 0.30733,0.0707 0.89822,0.19641 1.3131,0.27911 0.41489,0.0827 1.0184,0.19446 1.3411,0.24838 0.3227,0.0536 0.85073,0.1355 1.1734,0.18132 0.3227,0.0461 0.80686,0.10896 1.0756,0.13998 0.26906,0.031 0.68395,0.0754 0.92199,0.0983 0.23832,0.0232 0.69094,0.0612 1.0058,0.0844 0.31516,0.0232 0.81807,0.0556 1.1176,0.0715 0.29979,0.0162 1.0477,0.0369 1.6624,0.0461 0.66159,0.01 1.4881,0.004 2.0256,-0.0151 0.49955,-0.0179 1.1092,-0.045 1.355,-0.0604 0.24587,-0.0154 0.74878,-0.0534 1.1176,-0.0841 0.3688,-0.031 0.94711,-0.0877 1.2852,-0.12628 0.33806,-0.0383 0.87867,-0.10756 1.2014,-0.15339 0.3227,-0.0461 0.85074,-0.12768 1.1734,-0.18104 0.3227,-0.0537 0.90747,-0.16121 1.2992,-0.23888 0.39199,-0.0779 0.98289,-0.20368 1.3131,-0.27967 0.33024,-0.076 0.84601,-0.20144 1.1455,-0.27883 0.29978,-0.0774 0.80882,-0.21597 1.1315,-0.30789 0.32269,-0.0919 0.76917,-0.22379 0.99183,-0.29336 0.22295,-0.0693 0.68812,-0.22127 1.0337,-0.3375 0.34589,-0.11651 0.89908,-0.3118 1.2293,-0.43445 0.33024,-0.12265 0.82083,-0.31096 1.0896,-0.41825 0.26905,-0.10756 0.74682,-0.30621 1.0617,-0.44172 0.31516,-0.1355 0.83063,-0.36516 1.1455,-0.51044 0.31515,-0.14528 0.83063,-0.3931 1.1455,-0.55068 0.31515,-0.1573 0.7739,-0.39339 1.0198,-0.52441 0.24587,-0.13104 0.67335,-0.36433 0.94993,-0.51853 0.2766,-0.15395 0.75435,-0.43082 1.0617,-0.61466 0.30733,-0.18412 0.74737,-0.45429 0.97787,-0.60039 0.23049,-0.14612 0.69566,-0.45093 1.0337,-0.67752 0.33806,-0.22631 0.84742,-0.57808 1.1315,-0.78144 0.28442,-0.20367 0.72445,-0.52802 0.97786,-0.72108 0.25369,-0.19307 0.64346,-0.49565 0.86611,-0.6725 0.22296,-0.17685 0.60014,-0.48474 0.83817,-0.6842 0.23832,-0.19949 0.63396,-0.53949 0.87953,-0.75546 0.24558,-0.21597 0.61632,-0.54843 0.8242,-0.73898 0.20786,-0.19027 0.80521,-0.77475 1.3276,-1.2992 0.52276,-0.52416 1.1709,-1.1983 1.4411,-1.4978 0.26989,-0.29979 0.6532,-0.7334 0.85184,-0.9639 0.19865,-0.2305 0.52471,-0.61968 0.72446,-0.865 0.19976,-0.2453 0.54898,-0.68536 0.77586,-0.97787 0.22686,-0.29252 0.6035,-0.79596 0.83706,-1.1187 0.23357,-0.3227 0.62777,-0.88847 0.87616,-1.2573 0.24838,-0.36879 0.62275,-0.94405 0.83174,-1.2782 0.20898,-0.33387 0.52918,-0.86194 0.71134,-1.1734 0.18216,-0.31123 0.43864,-0.76078 0.57023,-0.99882 0.13132,-0.23832 0.38612,-0.71581 0.56602,-1.0611 0.17993,-0.34561 0.45932,-0.90496 0.62109,-1.2433 0.16149,-0.33834 0.3755,-0.79767 0.47552,-1.0203 0.10002,-0.22267 0.26766,-0.60767 0.37243,-0.8552 0.10505,-0.24754 0.26821,-0.64345 0.36293,-0.88008 0.0947,-0.23636 0.26625,-0.68144 0.38109,-0.98877 0.11483,-0.30733 0.31515,-0.87309 0.44506,-1.2572 0.12992,-0.38417 0.31683,-0.96249 0.41518,-1.2852 0.0983,-0.32269 0.23692,-0.7943 0.30816,-1.0477 0.071,-0.25369 0.20955,-0.78174 0.30789,-1.1734 0.0981,-0.39198 0.22827,-0.93877 0.28917,-1.2154 0.0609,-0.27659 0.15506,-0.72922 0.20926,-1.0058 0.0542,-0.2766 0.13662,-0.72305 0.18328,-0.99183 0.0467,-0.26906 0.11567,-0.69009 0.15311,-0.93596 0.0377,-0.24586 0.10058,-0.69234 0.13969,-0.99183 0.0391,-0.29979 0.10254,-0.853 0.14082,-1.2293 0.0385,-0.37662 0.0886,-0.94239 0.11147,-1.2573 0.0229,-0.31515 0.0573,-0.84932 0.0763,-1.1874 0.0201,-0.35343 0.0349,-1.2916 0.0352,-2.2072 0,-0.94294 -0.0142,-1.8431 -0.0349,-2.2072 -0.0196,-0.33807 -0.0604,-0.94154 -0.0911,-1.3411 -0.0307,-0.39952 -0.0874,-1.0156 -0.12601,-1.369 -0.0388,-0.35343 -0.10812,-0.91892 -0.15422,-1.2564 -0.0458,-0.3375 -0.14025,-0.95244 -0.20954,-1.3662 -0.0693,-0.41406 -0.18747,-1.0556 -0.26263,-1.4258 -0.0752,-0.37047 -0.19445,-0.9248 -0.26514,-1.2321 -0.0707,-0.30733 -0.19166,-0.8041 -0.26905,-1.1036 -0.0774,-0.29979 -0.23329,-0.86555 -0.34617,-1.2572 -0.11315,-0.39199 -0.27631,-0.93259 -0.36264,-1.2014 -0.0863,-0.26905 -0.24586,-0.74682 -0.35455,-1.0617 -0.10868,-0.31516 -0.31683,-0.88707 -0.46295,-1.2712 -0.14612,-0.38416 -0.38472,-0.98148 -0.52998,-1.3271 -0.14557,-0.34589 -0.37159,-0.86752 -0.50261,-1.1595 -0.13103,-0.29196 -0.43668,-0.93314 -0.67973,-1.4249 -0.24307,-0.49172 -0.55069,-1.0952 -0.68365,-1.3411 -0.13327,-0.24586 -0.35622,-0.64817 -0.49563,-0.89405 -0.1397,-0.24586 -0.40456,-0.69847 -0.58868,-1.0058 -0.18412,-0.30733 -0.51577,-0.84068 -0.73677,-1.1849 -0.22128,-0.34449 -0.58561,-0.89123 -0.81023,-1.2153 -0.22435,-0.32381 -0.56019,-0.79657 -0.74596,-1.0499 -0.1858,-0.25368 -0.52024,-0.69566 -0.7432,-0.98203 -0.22295,-0.28638 -0.55792,-0.70767 -0.7443,-0.93596 -0.18663,-0.22826 -0.51155,-0.61631 -0.72224,-0.86219 -0.21066,-0.24586 -0.60461,-0.69234 -0.87536,-0.99183 -0.27073,-0.29979 -0.93902,-0.99154 -1.4849,-1.5378 -0.54621,-0.54592 -1.238,-1.2142 -1.5378,-1.4847 -0.2995,-0.27045 -0.74596,-0.6644 -0.99183,-0.87505 -0.24587,-0.21094 -0.75491,-0.63084 -1.1315,-0.93345 -0.37634,-0.30258 -0.95465,-0.75154 -1.2852,-0.99741 -0.33023,-0.24614 -0.80802,-0.5923 -1.0617,-0.76943 -0.2534,-0.17713 -0.68732,-0.47301 -0.96389,-0.65712 -0.2766,-0.18439 -0.78566,-0.51154 -1.1315,-0.72696 -0.34561,-0.21541 -0.92395,-0.56185 -1.2852,-0.76998 -0.36125,-0.20787 -0.92058,-0.51969 -1.2433,-0.6926 -0.3227,-0.17294 -0.8946,-0.46686 -1.2712,-0.6535 -0.37633,-0.18663 -0.88565,-0.43138 -1.1315,-0.54426 -0.24586,-0.11259 -0.68701,-0.30928 -0.98037,-0.43669 -0.29309,-0.1274 -0.81501,-0.3442 -1.1595,-0.48194 -0.34421,-0.13774 -0.83983,-0.32885 -1.1011,-0.42468 -0.26123,-0.0956 -0.66968,-0.24195 -0.90802,-0.32493 -0.23804,-0.0833 -0.72837,-0.24446 -1.0896,-0.35873 -0.36125,-0.114 -0.87646,-0.27017 -1.1455,-0.347 -0.26877,-0.0771 -0.72305,-0.20228 -1.0092,-0.27884 -0.2861,-0.0763 -0.8239,-0.20954 -1.1949,-0.29587 -0.37103,-0.0866 -0.92169,-0.20731 -1.2237,-0.26849 -0.30202,-0.0615 -0.78903,-0.15451 -1.0821,-0.20731 -0.29335,-0.0525 -0.82224,-0.13998 -1.1756,-0.19418 -0.35343,-0.0542 -0.90018,-0.13019 -1.2154,-0.16875 -0.31487,-0.0385 -0.81777,-0.095 -1.1176,-0.12544 -0.29951,-0.0302 -0.80882,-0.074 -1.1315,-0.0972 -0.3227,-0.0232 -0.81918,-0.0556 -1.1036,-0.0718 -0.28414,-0.0165 -1.1642,-0.0346 -1.9557,-0.0405 z m 18.481,25.246 c 0.21513,0.01 0.49173,0.033 0.61466,0.0514 0.12293,0.0184 0.33918,0.057 0.48027,0.0861 0.14137,0.0288 0.37382,0.0858 0.51687,0.12684 0.14305,0.0411 0.37327,0.11763 0.51155,0.17043 0.13829,0.0525 0.347,0.13858 0.46378,0.19138 0.11679,0.0525 0.33052,0.16037 0.47497,0.23972 0.14444,0.0791 0.3822,0.22575 0.52802,0.32605 0.14613,0.10002 0.35986,0.25788 0.47497,0.35063 0.11539,0.0928 0.34225,0.3023 0.50456,0.46547 0.16204,0.16344 0.39561,0.4311 0.51883,0.59511 0.12321,0.164 0.30341,0.43166 0.40064,0.59481 0.0972,0.16316 0.22994,0.41797 0.29504,0.56607 0.0651,0.14807 0.15841,0.38863 0.20759,0.53476 0.0489,0.14584 0.11315,0.36739 0.14304,0.49228 0.0296,0.12461 0.0727,0.35734 0.0953,0.51687 0.0358,0.25285 0.0414,2.3329 0.0417,16.262 5e-4,13.849 -0.005,15.998 -0.04,16.163 -0.0224,0.10477 -0.0645,0.26011 -0.0941,0.34477 -0.0294,0.0849 -0.0883,0.22323 -0.13104,0.30733 -0.0425,0.0844 -0.12824,0.22854 -0.19026,0.32074 -0.062,0.0922 -0.19557,0.25368 -0.29644,0.35873 -0.10085,0.10505 -0.26513,0.25145 -0.36516,0.32522 -0.0997,0.074 -0.26318,0.17908 -0.3632,0.23384 -0.0997,0.0545 -0.26962,0.13243 -0.37718,0.17294 -0.10757,0.0405 -0.28973,0.0978 -0.40512,0.12685 -0.1151,0.0294 -0.3917,0.0668 -0.61465,0.0833 -0.26906,0.0199 -1.6476,0.0263 -4.107,0.0193 l -3.7019,-0.0104 -0.25146,-0.0581 c -0.13829,-0.0319 -0.33331,-0.0855 -0.43305,-0.1193 -0.0997,-0.0338 -0.28218,-0.11204 -0.40512,-0.17378 -0.12293,-0.0618 -0.30537,-0.17015 -0.40511,-0.24111 -0.0997,-0.071 -0.27017,-0.21737 -0.37857,-0.32549 -0.10813,-0.10813 -0.24782,-0.27185 -0.31041,-0.36405 -0.0626,-0.0922 -0.15925,-0.25843 -0.21513,-0.36907 -0.0556,-0.11092 -0.13606,-0.31208 -0.17825,-0.44703 l -0.0771,-0.24558 -0.008,-15.925 c -0.006,-11.367 2.8e-4,-16.013 0.0221,-16.233 0.0168,-0.16903 0.0629,-0.45205 0.10198,-0.62863 0.0394,-0.17657 0.11511,-0.45345 0.16847,-0.61466 0.0534,-0.16148 0.1763,-0.4568 0.27352,-0.65656 0.0969,-0.19977 0.26347,-0.49536 0.3702,-0.65657 0.10672,-0.16149 0.26123,-0.37522 0.34336,-0.47496 0.0821,-0.0997 0.21933,-0.25648 0.3051,-0.34812 0.0858,-0.0917 0.25648,-0.25956 0.37941,-0.37327 0.12293,-0.11344 0.33667,-0.29085 0.47496,-0.39394 0.1383,-0.10338 0.37774,-0.26486 0.53195,-0.35957 0.15423,-0.0944 0.43725,-0.24671 0.62863,-0.33807 0.19138,-0.0914 0.49899,-0.2182 0.6834,-0.28218 0.18439,-0.0637 0.48725,-0.15227 0.67305,-0.19697 0.18579,-0.0447 0.46881,-0.1017 0.62862,-0.12628 0.16009,-0.0249 0.47329,-0.0534 0.69597,-0.0637 0.22295,-0.0101 0.58114,-0.0103 0.79626,-5.5e-4 z m -18.86,8.7998 c 0.37578,-0.002 0.713,0.0126 0.93596,0.0402 0.19166,0.0235 0.48949,0.0743 0.66189,0.11287 0.17211,0.0386 0.41099,0.0995 0.53084,0.13522 0.11958,0.036 0.34309,0.11231 0.49676,0.16987 0.15366,0.0573 0.44926,0.19027 0.65657,0.29531 0.20758,0.10506 0.50511,0.2766 0.66189,0.38109 0.15646,0.10421 0.38807,0.27157 0.51466,0.37131 0.12628,0.0997 0.3565,0.30844 0.51154,0.46323 0.15479,0.15506 0.36349,0.38555 0.46323,0.51209 0.10003,0.12657 0.25425,0.33946 0.3431,0.47273 0.0888,0.13327 0.23524,0.38696 0.3252,0.56356 0.09,0.17657 0.21039,0.44702 0.26794,0.60068 0.0573,0.15367 0.14053,0.42216 0.18468,0.59652 0.0442,0.17462 0.0992,0.46128 0.12237,0.63727 0.0366,0.27967 0.0419,1.7568 0.0416,11.836 l -5.1e-4,11.516 -0.0522,0.25425 c -0.029,0.13969 -0.0969,0.3565 -0.15143,0.48194 -0.0542,0.12517 -0.15898,0.31907 -0.23245,0.43027 -0.0738,0.11147 -0.23637,0.30537 -0.36153,0.43109 -0.12489,0.12573 -0.33667,0.29979 -0.4705,0.38696 -0.13383,0.0872 -0.34393,0.20228 -0.46713,0.25564 -0.12322,0.0534 -0.34561,0.12796 -0.49425,0.16596 -0.14863,0.0377 -0.42104,0.0805 -0.60541,0.0947 -0.18468,0.0145 -1.9099,0.0263 -3.8416,0.0263 -1.9912,0 -3.6561,-0.0115 -3.8528,-0.0268 -0.19669,-0.0154 -0.46015,-0.0573 -0.60988,-0.0972 -0.14501,-0.0385 -0.36572,-0.11483 -0.49033,-0.1696 -0.12461,-0.055 -0.33332,-0.1693 -0.46351,-0.25396 -0.12992,-0.0849 -0.34533,-0.26318 -0.47804,-0.39645 -0.145,-0.14557 -0.2995,-0.33667 -0.38695,-0.47916 -0.0802,-0.13048 -0.18189,-0.33164 -0.22631,-0.44702 -0.0444,-0.11539 -0.10086,-0.30677 -0.12517,-0.42524 l -0.0444,-0.2154 5.5e-4,-11.547 c 2.8e-4,-10.028 0.006,-11.585 0.0416,-11.837 0.0226,-0.15953 0.0668,-0.39841 0.0981,-0.53084 0.031,-0.13243 0.1003,-0.37299 0.15366,-0.53421 0.0537,-0.16149 0.17826,-0.45988 0.27744,-0.66325 0.0989,-0.2034 0.26095,-0.49284 0.36013,-0.64315 0.0992,-0.15031 0.26319,-0.37578 0.36432,-0.50122 0.10114,-0.12545 0.28806,-0.33276 0.4149,-0.46071 0.12712,-0.12768 0.33806,-0.32186 0.46853,-0.43138 0.13076,-0.10952 0.37578,-0.29168 0.54512,-0.40512 0.16903,-0.11315 0.4582,-0.2833 0.64259,-0.37801 0.18412,-0.0944 0.41685,-0.20619 0.51657,-0.24838 0.10003,-0.0422 0.32158,-0.12404 0.49284,-0.18216 0.17127,-0.0578 0.48559,-0.14444 0.69848,-0.19194 0.21289,-0.0475 0.51938,-0.10393 0.68059,-0.12517 0.16148,-0.0209 0.55767,-0.0397 0.88093,-0.0413 z m -17.979,8.8023 c 0.22268,0.0101 0.56743,0.045 0.76551,0.0774 0.19837,0.0327 0.48139,0.09 0.62918,0.1274 0.1478,0.0374 0.41937,0.11958 0.6035,0.18272 0.18412,0.0629 0.52331,0.20675 0.7538,0.31962 0.2305,0.11315 0.56994,0.30482 0.75436,0.42635 0.18439,0.12154 0.44842,0.31543 0.58672,0.4311 0.13829,0.11595 0.3836,0.34784 0.54481,0.51602 0.16148,0.16791 0.36488,0.39925 0.45205,0.51406 0.0872,0.1151 0.22994,0.32213 0.31683,0.46043 0.0872,0.1383 0.23105,0.40232 0.3199,0.58672 0.0888,0.1844 0.20172,0.45457 0.25061,0.60069 0.0489,0.14584 0.11902,0.38863 0.15562,0.53893 0.0366,0.15059 0.0866,0.43334 0.1112,0.62863 0.0397,0.31795 0.0436,1.1019 0.0363,7.5074 l -0.008,7.1526 -0.0771,0.24559 c -0.0422,0.13494 -0.12237,0.3361 -0.17825,0.44702 -0.0556,0.11064 -0.13941,0.25816 -0.18635,0.32717 -0.0467,0.069 -0.14668,0.19808 -0.2224,0.28609 -0.0754,0.0883 -0.23077,0.23581 -0.34476,0.32745 -0.11399,0.0916 -0.29196,0.21596 -0.39562,0.27603 -0.10337,0.0601 -0.30118,0.15395 -0.43948,0.20871 -0.1383,0.0548 -0.38332,0.1288 -0.54481,0.16428 l -0.29336,0.0645 h -3.9534 c -3.0065,0 -4.0006,-0.008 -4.1512,-0.0344 -0.10868,-0.019 -0.30984,-0.0668 -0.44703,-0.10617 -0.1369,-0.0397 -0.34979,-0.12098 -0.47272,-0.18076 -0.12293,-0.0598 -0.3051,-0.16289 -0.40512,-0.22855 -0.0997,-0.0659 -0.27771,-0.21177 -0.39534,-0.32409 -0.11762,-0.11203 -0.27631,-0.29447 -0.35258,-0.40539 -0.0766,-0.11092 -0.17658,-0.27688 -0.2224,-0.36908 -0.0461,-0.0922 -0.1098,-0.24949 -0.14193,-0.34923 -0.0321,-0.10003 -0.0721,-0.25704 -0.0891,-0.34924 -0.0218,-0.12014 -0.0279,-2.2373 -0.0212,-7.4596 l 0.01,-7.2923 0.0612,-0.27716 c 0.0335,-0.15255 0.0939,-0.39143 0.13383,-0.53084 0.0402,-0.13969 0.12935,-0.39198 0.19808,-0.56099 0.069,-0.16903 0.183,-0.41434 0.25369,-0.54481 0.0704,-0.13076 0.21317,-0.36321 0.31711,-0.51687 0.10421,-0.15367 0.29,-0.39981 0.41294,-0.54702 0.12293,-0.14752 0.32185,-0.35986 0.44199,-0.47217 0.12014,-0.1126 0.30034,-0.26961 0.40009,-0.34924 0.10002,-0.0799 0.30118,-0.22715 0.44702,-0.32744 0.14612,-0.1003 0.3836,-0.24698 0.52803,-0.32605 0.14444,-0.0793 0.35817,-0.18691 0.47496,-0.23972 0.11679,-0.0525 0.31292,-0.13439 0.43585,-0.1816 0.12293,-0.0472 0.37438,-0.12908 0.55878,-0.18161 0.1844,-0.0525 0.46714,-0.12042 0.62863,-0.15087 0.16148,-0.0305 0.43165,-0.0693 0.60068,-0.0863 0.16903,-0.017 0.40791,-0.0338 0.53084,-0.0374 0.12294,-0.003 0.40596,0.002 0.62863,0.012 z"
         id="icon" /></g></g><g
     style="opacity:0"
     id="g44"><g
       transform="matrix(1.0684,0,0,1.0684,-37.331,-27.575)"
       id="g42"><path
         stroke-miterlimit="2"
         d="m 396.78,408.48 q -6.75,0 -11.52,-2.88 -4.68,-2.88 -7.11,-7.83 -2.43,-4.95 -2.43,-10.98 0,-5.31 2.43,-10.17 2.52,-4.95 7.11,-8.01 4.59,-3.06 10.53,-3.06 8.01,0 12.33,4.14 4.32,4.05 4.95,10.98 0,2.97 -1.62,4.05 -1.62,1.08 -4.68,1.08 H 384.9 q 0,8.37 3.42,13.32 3.51,4.86 10.8,4.86 3.87,0 6.57,-1.62 2.7,-1.71 5.13,-5.67 0.45,-0.45 0.9,-0.45 0.63,0 1.08,0.36 0.9,0.54 0.9,1.62 0,0.54 -0.18,0.81 -2.79,4.5 -7.11,7.02 -4.23,2.43 -9.63,2.43 z m 2.79,-26.1 q 4.59,0 4.86,-3.78 0,-4.14 -2.25,-7.02 -2.25,-2.88 -6.39,-2.88 -4.59,0 -7.56,3.69 -2.97,3.6 -3.33,9.99 z"
         style="font-variant-ligatures:none;fill:#cfca4e;stroke-width:0;stroke-miterlimit:2"
         id="path24" /><path
         stroke-miterlimit="2"
         d="m 439.8,408.48 q -5.04,0 -9.36,-2.7 -4.32,-2.79 -6.93,-7.65 -2.61,-4.95 -2.61,-11.16 0,-5.58 2.7,-10.53 2.7,-4.95 7.47,-7.92 4.77,-2.97 10.62,-2.97 2.79,0 5.58,0.72 2.79,0.63 4.86,1.8 h 0.27 V 354.3 q 0,-2.34 -0.18,-3.42 -0.09,-1.08 -1.08,-1.89 -0.99,-0.81 -3.33,-0.81 -1.08,0 -1.62,-0.27 -0.54,-0.36 -0.54,-1.53 0,-0.54 0.36,-0.99 0.36,-0.54 1.08,-0.63 5.67,-0.81 9.72,-2.34 1.26,-0.45 2.07,-0.54 h 0.27 q 1.44,0 1.44,1.71 v 55.53 q 0,5.31 7.02,5.31 1.53,0 1.53,1.44 0,1.26 -1.53,1.53 l -14.31,0.99 q -0.63,0 -0.72,-0.45 -0.09,-0.36 -0.09,-1.35 v -3.6 h -0.27 q -2.34,2.43 -5.76,3.96 -3.33,1.53 -6.66,1.53 z m 3.06,-4.5 q 3.15,0 5.31,-1.17 2.25,-1.26 4.23,-3.33 v -23.76 q -0.81,-2.61 -3.42,-4.77 -2.52,-2.16 -6.39,-2.16 -3.51,0 -6.39,2.25 -2.79,2.16 -4.41,6.39 -1.62,4.23 -1.62,9.99 0,6.93 3.24,11.79 3.33,4.77 9.45,4.77 z"
         style="font-variant-ligatures:none;fill:#cfca4e;stroke-width:0;stroke-miterlimit:2"
         id="path26" /><path
         stroke-miterlimit="2"
         d="m 491.02,408.48 q -6.12,0 -9.72,-3.69 -3.6,-3.69 -3.6,-9.72 v -16.65 q 0,-2.34 -0.17999,-3.42 -0.09,-1.08 -1.08,-1.89 -0.98999,-0.81 -3.33,-0.81 -1.08,0 -1.62,-0.27 -0.54001,-0.36 -0.54001,-1.53 0,-0.54 0.36001,-0.99 0.36,-0.54 1.08,-0.63 5.67,-0.81 9.72,-2.34 1.26,-0.45 2.07,-0.54 h 0.27 q 1.44,0 1.44,1.71 v 27.27 q 0,4.14 2.61,6.39 2.61,2.16 6.03,2.16 4.23,0 7.2,-2.07 2.97,-2.07 3.96,-4.14 v -18.9 q 0,-2.34 -0.18,-3.42 -0.09,-1.08 -1.08,-1.89 -0.99,-0.81 -3.33,-0.81 -1.08,0 -1.62,-0.27 -0.54,-0.36 -0.54,-1.53 0,-0.54 0.36,-0.99 0.36,-0.54 1.08,-0.63 5.67,-0.81 9.72,-2.34 1.26,-0.45 2.07,-0.54 h 0.27 q 1.44,0 1.44,1.71 v 31.14 q 0,5.31 7.11,5.31 1.53,0 1.53,1.71 0,1.26 -1.53,1.53 l -14.49,0.99 q -0.63,0 -0.72,-0.45 -0.09,-0.36 -0.09,-1.35 v -5.04 h -0.18 q -2.61,2.43 -4.23,3.78 -1.62,1.26 -4.23,2.16 -2.52,0.99 -6.03,0.99 z"
         style="font-variant-ligatures:none;fill:#cfca4e;stroke-width:0;stroke-miterlimit:2"
         id="path28" /><path
         stroke-miterlimit="2"
         d="m 552.29,426.12 q -0.63,0 -0.99,-0.54 -0.36,-0.54 -0.36,-1.26 0.09,-1.17 0.45,-1.44 0.45,-0.18 1.62,-0.18 2.16,0 3.15,-0.81 0.99,-0.81 1.17,-1.98 0.27,-1.17 0.27,-3.33 v -13.23 h -0.27 q -1.89,2.07 -5.04,3.6 -3.15,1.53 -6.93,1.53 -5.22,0 -9.63,-2.7 -4.41,-2.7 -7.02,-7.74 -2.52,-5.04 -2.52,-11.52 0,-5.76 2.88,-10.53 2.88,-4.86 7.65,-7.65 4.86,-2.79 10.26,-2.79 3.96,0 6.57,0.99 2.7,0.9 4.23,1.89 1.62,0.9 2.16,1.17 h 0.45 q 0.27,-0.54 0.9,-1.89 0.63,-1.44 1.35,-2.25 0.72,-0.9 1.53,-0.9 0.81,0 1.26,0.54 0.45,0.45 0.45,1.26 v 50.22 q 0,2.16 0.18,3.33 0.18,1.17 1.17,1.98 0.99,0.81 3.24,0.81 h 0.54 q 0.81,0 1.08,0.27 0.36,0.27 0.45,1.35 0,0.72 -0.36,1.26 -0.36,0.54 -1.08,0.54 -5.31,-0.27 -9.45,-0.27 -4.05,0 -9.36,0.27 z m -3.96,-22.05 q 2.97,0 5.13,-1.08 2.25,-1.17 4.14,-3.15 v -24.39 q -0.9,-2.7 -3.42,-4.68 -2.52,-2.07 -6.75,-2.07 -3.42,0 -6.21,2.34 -2.79,2.25 -4.41,6.48 -1.53,4.23 -1.53,9.9 0,7.11 3.15,11.88 3.24,4.77 9.9,4.77 z"
         style="font-variant-ligatures:none;fill:#083a67;stroke-width:0;stroke-miterlimit:2"
         id="path30" /><path
         stroke-miterlimit="2"
         d="m 594.38,408.48 q -6.12,0 -9.72,-3.69 -3.6,-3.69 -3.6,-9.72 v -16.65 q 0,-2.34 -0.18,-3.42 -0.09,-1.08 -1.08,-1.89 -0.99,-0.81 -3.33,-0.81 -1.08,0 -1.62,-0.27 -0.54,-0.36 -0.54,-1.53 0,-0.54 0.36,-0.99 0.36,-0.54 1.08,-0.63 5.67,-0.81 9.72,-2.34 1.26,-0.45 2.07,-0.54 h 0.27 q 1.44,0 1.44,1.71 v 27.27 q 0,4.14 2.61,6.39 2.61,2.16 6.03,2.16 4.23,0 7.2,-2.07 2.97,-2.07 3.96,-4.14 v -18.9 q 0,-2.34 -0.18,-3.42 -0.09,-1.08 -1.08,-1.89 -0.99,-0.81 -3.33,-0.81 -1.08,0 -1.62,-0.27 -0.54,-0.36 -0.54,-1.53 0,-0.54 0.36,-0.99 0.36,-0.54 1.08,-0.63 5.67,-0.81 9.72,-2.34 1.26,-0.45 2.07,-0.54 h 0.27 q 1.44,0 1.44,1.71 v 31.14 q 0,5.31 7.11,5.31 1.53,0 1.53,1.71 0,1.26 -1.53,1.53 l -14.49,0.99 q -0.63,0 -0.72,-0.45 -0.09,-0.36 -0.09,-1.35 v -5.04 h -0.18 q -2.61,2.43 -4.23,3.78 -1.62,1.26 -4.23,2.16 -2.52,0.99 -6.03,0.99 z"
         style="font-variant-ligatures:none;fill:#083a67;stroke-width:0;stroke-miterlimit:2"
         id="path32" /><path
         stroke-miterlimit="2"
         d="m 640.63,408.48 q -5.4,0 -8.73,-3.06 -3.33,-3.06 -3.33,-7.65 0,-5.67 3.78,-8.46 3.78,-2.88 9,-3.69 5.22,-0.9 13.5,-1.35 v -7.11 q 0,-4.41 -2.25,-6.66 -2.16,-2.34 -7.02,-2.34 -2.79,0 -4.86,1.71 -2.07,1.71 -2.07,4.59 0,1.44 0.63,2.43 0.72,0.9 1.44,1.53 0.81,0.63 0.81,0.72 0,0.54 -1.17,1.44 -1.08,0.81 -2.7,0.81 -2.7,0 -4.32,-1.98 -1.53,-1.98 -1.53,-4.68 0,-4.68 4.14,-6.93 4.23,-2.25 10.17,-2.25 7.38,0 11.97,2.79 4.68,2.79 4.68,10.35 v 20.97 q 0.09,1.89 1.17,3.6 1.08,1.71 3.51,1.71 0.72,0 0.99,0.27 0.36,0.27 0.36,1.17 0,1.08 -1.71,1.53 -1.62,0.54 -3.24,0.54 -3.42,0 -6.03,-1.98 -2.61,-1.98 -2.97,-5.31 -1.89,3.51 -5.85,5.4 -3.87,1.89 -8.37,1.89 z m 2.88,-4.86 q 3.06,0 5.67,-1.53 2.61,-1.53 4.14,-4.14 1.53,-2.7 1.53,-5.94 v -5.13 q -9.45,0.72 -13.32,3.06 -3.87,2.34 -3.87,7.56 0,6.12 5.85,6.12 z"
         style="font-variant-ligatures:none;fill:#083a67;stroke-width:0;stroke-miterlimit:2"
         id="path34" /><path
         stroke-miterlimit="2"
         d="m 674.57,407.67 q -0.63,0 -1.08,-0.54 -0.36,-0.54 -0.36,-1.26 0.09,-1.17 0.54,-1.35 0.45,-0.27 1.62,-0.27 2.34,0 3.33,-0.81 0.99,-0.81 1.08,-1.89 0.18,-1.08 0.18,-3.42 v -20.61 q 0,-2.34 -0.18,-3.42 -0.09,-1.08 -1.08,-1.89 -0.99,-0.81 -3.33,-0.81 -1.08,0 -1.62,-0.27 -0.54,-0.36 -0.54,-1.53 0,-0.54 0.36,-0.99 0.36,-0.54 1.08,-0.63 5.85,-0.9 9.63,-2.34 1.53,-0.45 2.07,-0.54 h 0.27 q 1.44,0 1.44,1.71 v 5.67 h 0.27 q 2.61,-2.43 4.23,-3.69 1.62,-1.35 4.14,-2.25 2.61,-0.99 6.12,-0.99 6.12,0 9.72,3.69 3.6,3.69 3.6,9.72 v 19.17 q 0,2.34 0.18,3.42 0.18,1.08 1.17,1.89 0.99,0.81 3.33,0.81 h 0.54 q 0.72,0 1.08,0.27 0.36,0.27 0.45,1.35 0,0.72 -0.45,1.26 -0.36,0.54 -0.99,0.54 -5.22,-0.27 -9.45,-0.27 -4.05,0 -9.36,0.27 -0.63,0 -1.08,-0.54 -0.36,-0.54 -0.36,-1.26 0.09,-1.17 0.45,-1.35 0.45,-0.27 1.62,-0.27 2.34,0 3.33,-0.81 0.99,-0.81 1.17,-1.89 0.18,-1.08 0.18,-3.42 v -19.08 q 0,-4.14 -2.61,-6.3 -2.61,-2.25 -6.03,-2.25 -4.14,0 -7.11,2.07 -2.97,1.98 -4.05,4.14 v 21.42 q 0,2.34 0.18,3.42 0.18,1.08 1.17,1.89 0.99,0.81 3.33,0.81 h 0.54 q 0.72,0 1.08,0.27 0.36,0.27 0.45,1.35 0,0.72 -0.36,1.26 -0.36,0.54 -1.08,0.54 -5.22,-0.27 -9.45,-0.27 -4.05,0 -9.36,0.27 z"
         style="font-variant-ligatures:none;fill:#083a67;stroke-width:0;stroke-miterlimit:2"
         id="path36" /><path
         stroke-miterlimit="2"
         d="m 742.86,408.93 q -4.41,0 -7.56,-3.24 -3.15,-3.24 -3.15,-9.27 v -26.46 l -5.22,0.18 q -0.54,0 -0.9,-0.45 -0.36,-0.54 -0.36,-1.17 0,-0.81 0.27,-1.35 0.36,-0.63 0.99,-0.72 3.15,-0.63 4.86,-1.98 1.8,-1.44 2.61,-3.06 0.81,-1.71 1.98,-5.13 0.45,-1.17 1.98,-1.17 0.63,0 1.26,0.36 0.63,0.27 0.63,0.9 l -0.63,10.26 10.53,-0.63 h 0.18 q 1.17,0 1.17,1.71 0,0.99 -0.36,1.89 -0.27,0.81 -0.72,0.81 l -10.08,-0.27 v 27.36 q 0,2.97 1.17,4.95 1.26,1.98 4.05,1.98 2.79,0 4.95,-0.99 1.17,-0.45 1.44,-0.45 0.63,0 0.99,0.54 0.36,0.45 0.72,1.26 0.09,0.18 0.09,0.45 0,0.36 -0.54,0.81 -2.61,1.71 -4.95,2.25 -2.25,0.63 -5.4,0.63 z"
         style="font-variant-ligatures:none;fill:#083a67;stroke-width:0;stroke-miterlimit:2"
         id="path38" /><path
         style="fill:#083a67;stroke-width:0.5025"
         d="m 320.14,339.96 c -0.79123,-0.006 -1.6964,0 -2.011,0.0131 -0.31487,0.0129 -0.79877,0.0374 -1.0756,0.0545 -0.27688,0.017 -0.72978,0.0497 -1.0064,0.0729 -0.27659,0.0232 -0.74792,0.0673 -1.0477,0.0981 -0.29951,0.031 -0.87169,0.0997 -1.2712,0.15338 -0.39952,0.0534 -1.0282,0.14752 -1.397,0.20899 -0.36879,0.0615 -1.0413,0.18635 -1.4947,0.27743 -0.45317,0.0911 -1.0944,0.22938 -1.4249,0.30733 -0.33024,0.0779 -0.77028,0.18608 -0.97787,0.24028 -0.2073,0.0542 -0.51546,0.1369 -0.6845,0.18355 -0.16903,0.0467 -0.53979,0.15367 -0.8242,0.23777 -0.28414,0.0841 -0.71802,0.21652 -0.9639,0.29447 -0.24586,0.0779 -0.74234,0.24586 -1.1036,0.37327 -0.36097,0.1274 -0.75716,0.26905 -0.88008,0.31487 -0.12293,0.0455 -0.49368,0.1897 -0.8242,0.3199 -0.33023,0.1302 -0.86666,0.35064 -1.1916,0.49005 -0.3252,0.13941 -0.85324,0.37494 -1.1734,0.52355 -0.32046,0.14864 -0.903,0.43166 -1.295,0.62918 -0.39198,0.19726 -1.0206,0.52723 -1.397,0.7331 -0.37633,0.20564 -0.9044,0.50346 -1.1734,0.6619 -0.26878,0.15813 -0.73843,0.44339 -1.0436,0.6342 -0.30509,0.19054 -0.83786,0.53562 -1.1843,0.76692 -0.34644,0.23133 -0.85128,0.57862 -1.122,0.77169 -0.27045,0.19333 -0.66772,0.48334 -0.88289,0.6448 -0.21513,0.16177 -0.59848,0.45709 -0.85214,0.65627 -0.25341,0.19948 -0.67973,0.54451 -0.94686,0.76666 -0.26738,0.2224 -0.68481,0.57863 -0.92787,0.79149 -0.24307,0.21289 -0.61521,0.54702 -0.82727,0.74204 -0.21177,0.19529 -0.71048,0.67612 -1.1078,1.069 -0.39757,0.39282 -0.92168,0.9248 -1.165,1.1824 -0.24335,0.25732 -0.62416,0.6722 -0.84626,0.92199 -0.22212,0.2495 -0.56356,0.6423 -0.75883,0.87279 -0.19529,0.2305 -0.52747,0.6328 -0.73842,0.89405 -0.21066,0.26123 -0.57833,0.73254 -0.81666,1.0477 -0.23833,0.31487 -0.59205,0.79486 -0.78622,1.0665 -0.19389,0.27156 -0.57692,0.83148 -0.85103,1.2444 -0.27408,0.41294 -0.65687,1.0094 -0.85073,1.3254 -0.1939,0.316 -0.4962,0.82451 -0.67195,1.1304 -0.17545,0.30565 -0.46797,0.83229 -0.64988,1.1704 -0.18188,0.33806 -0.51546,0.99183 -0.74149,1.4528 -0.22602,0.46099 -0.5015,1.0393 -0.61245,1.2852 -0.11091,0.24587 -0.31794,0.7236 -0.46043,1.0617 -0.14221,0.33807 -0.366,0.89124 -0.49731,1.2293 -0.13104,0.33806 -0.35175,0.93626 -0.49033,1.3293 -0.1383,0.39339 -0.34589,1.0156 -0.461,1.383 -0.11511,0.36768 -0.27883,0.91335 -0.36404,1.2131 -0.0849,0.2995 -0.21793,0.78983 -0.29504,1.0896 -0.0774,0.29951 -0.20284,0.81526 -0.27855,1.1455 -0.076,0.33024 -0.19529,0.88988 -0.26542,1.2433 -0.0701,0.35342 -0.15897,0.81862 -0.19725,1.0337 -0.0383,0.21513 -0.10757,0.63616 -0.15367,0.93595 -0.0464,0.29951 -0.11511,0.7837 -0.15282,1.0757 -0.038,0.29196 -0.0947,0.77586 -0.12601,1.0756 -0.0313,0.2995 -0.0757,0.77113 -0.0984,1.0477 -0.0229,0.2766 -0.055,0.7228 -0.0712,0.99183 -0.0162,0.26878 -0.0416,0.80938 -0.0562,1.2014 -0.0148,0.39171 -0.0271,1.0958 -0.0271,1.5646 0,0.46853 0.0123,1.1726 0.0271,1.5646 0.0145,0.3917 0.04,0.93234 0.0562,1.2014 0.0162,0.26877 0.0545,0.78425 0.0852,1.1455 0.0307,0.36098 0.0875,0.93315 0.12629,1.2712 0.0385,0.33806 0.10142,0.84098 0.13969,1.1176 0.0386,0.2766 0.11986,0.80465 0.18105,1.1734 0.0612,0.36879 0.17937,1.0108 0.26262,1.4265 0.0833,0.41601 0.20312,0.98179 0.26654,1.2573 0.0634,0.27576 0.15925,0.67722 0.21318,0.89239 0.0539,0.21513 0.1545,0.59848 0.22379,0.85214 0.0693,0.2534 0.21373,0.75631 0.3213,1.1176 0.10756,0.36097 0.28777,0.93314 0.40064,1.2712 0.1126,0.33807 0.30733,0.89546 0.4325,1.2388 0.12544,0.34309 0.34141,0.90771 0.47999,1.2544 0.13886,0.347 0.35622,0.87088 0.48363,1.1642 0.12712,0.29336 0.32381,0.7345 0.43668,0.98038 0.11288,0.24586 0.36405,0.76747 0.55848,1.1595 0.19418,0.39198 0.48614,0.95942 0.64873,1.2614 0.16289,0.30202 0.37997,0.69817 0.48306,0.88008 0.10282,0.18216 0.29392,0.51325 0.42496,0.73621 0.13103,0.22268 0.39422,0.65461 0.58451,0.95973 0.19054,0.30509 0.53561,0.83787 0.76691,1.1843 0.23134,0.34644 0.57863,0.85128 0.77169,1.122 0.19334,0.27045 0.48363,0.66772 0.64511,0.88289 0.16177,0.21513 0.45177,0.5923 0.64426,0.83817 0.19277,0.24587 0.53752,0.67195 0.76636,0.94687 0.22882,0.27492 0.59034,0.69877 0.80355,0.94183 0.21289,0.24307 0.54702,0.61521 0.74204,0.82727 0.19501,0.21177 0.69485,0.72892 1.1109,1.1491 0.41574,0.42021 0.98877,0.98124 1.2729,1.2467 0.28442,0.26542 0.68033,0.62752 0.88008,0.8049 0.19976,0.17714 0.55179,0.48195 0.78229,0.67727 0.23049,0.19529 0.65797,0.54677 0.94992,0.78088 0.29197,0.23441 0.73843,0.58336 0.99184,0.77531 0.25369,0.19222 0.6937,0.51602 0.97786,0.71968 0.28442,0.2034 0.81305,0.56858 1.1754,0.81134 0.36209,0.24279 0.94073,0.61687 1.2863,0.83174 0.34533,0.21457 0.92284,0.55988 1.2832,0.76721 0.36042,0.20759 0.86918,0.49313 1.1304,0.63476 0.26123,0.14165 0.90244,0.46881 1.4249,0.72727 0.52245,0.25844 1.2329,0.59536 1.5786,0.74847 0.34589,0.15339 0.84737,0.36964 1.1148,0.48027 0.26765,0.11092 0.66355,0.27045 0.88008,0.35511 0.2168,0.0844 0.64541,0.24531 0.95274,0.35762 0.30732,0.11231 0.8041,0.28637 1.1036,0.38695 0.2995,0.10059 0.73118,0.24056 0.95857,0.31069 0.2277,0.0704 0.67415,0.20227 0.99183,0.29335 0.31795,0.0908 0.82335,0.22855 1.1229,0.30566 0.29978,0.0774 0.79626,0.19836 1.1036,0.26933 0.30733,0.0707 0.89822,0.19641 1.3131,0.27911 0.41489,0.0827 1.0184,0.19446 1.3411,0.24838 0.3227,0.0536 0.85073,0.1355 1.1734,0.18132 0.3227,0.0461 0.80686,0.10896 1.0756,0.13998 0.26906,0.031 0.68395,0.0754 0.92199,0.0983 0.23832,0.0232 0.69094,0.0612 1.0058,0.0844 0.31516,0.0232 0.81807,0.0556 1.1176,0.0715 0.29979,0.0162 1.0477,0.0369 1.6624,0.0461 0.66159,0.01 1.4881,0.004 2.0256,-0.0151 0.49955,-0.0179 1.1092,-0.045 1.355,-0.0604 0.24587,-0.0154 0.74878,-0.0534 1.1176,-0.0841 0.3688,-0.031 0.94711,-0.0877 1.2852,-0.12628 0.33806,-0.0383 0.87867,-0.10756 1.2014,-0.15339 0.3227,-0.0461 0.85074,-0.12768 1.1734,-0.18104 0.3227,-0.0537 0.90747,-0.16121 1.2992,-0.23888 0.39199,-0.0779 0.98289,-0.20368 1.3131,-0.27967 0.33024,-0.076 0.84601,-0.20144 1.1455,-0.27883 0.29978,-0.0774 0.80882,-0.21597 1.1315,-0.30789 0.32269,-0.0919 0.76917,-0.22379 0.99183,-0.29336 0.22295,-0.0693 0.68812,-0.22127 1.0337,-0.3375 0.34589,-0.11651 0.89908,-0.3118 1.2293,-0.43445 0.33024,-0.12265 0.82083,-0.31096 1.0896,-0.41825 0.26905,-0.10756 0.74682,-0.30621 1.0617,-0.44172 0.31516,-0.1355 0.83063,-0.36516 1.1455,-0.51044 0.31515,-0.14528 0.83063,-0.3931 1.1455,-0.55068 0.31515,-0.1573 0.7739,-0.39339 1.0198,-0.52441 0.24587,-0.13104 0.67335,-0.36433 0.94993,-0.51853 0.2766,-0.15395 0.75435,-0.43082 1.0617,-0.61466 0.30733,-0.18412 0.74737,-0.45429 0.97787,-0.60039 0.23049,-0.14612 0.69566,-0.45093 1.0337,-0.67752 0.33806,-0.22631 0.84742,-0.57808 1.1315,-0.78144 0.28442,-0.20367 0.72445,-0.52802 0.97786,-0.72108 0.25369,-0.19307 0.64346,-0.49565 0.86611,-0.6725 0.22296,-0.17685 0.60014,-0.48474 0.83817,-0.6842 0.23832,-0.19949 0.63396,-0.53949 0.87953,-0.75546 0.24558,-0.21597 0.61632,-0.54843 0.8242,-0.73898 0.20786,-0.19027 0.80521,-0.77475 1.3276,-1.2992 0.52276,-0.52416 1.1709,-1.1983 1.4411,-1.4978 0.26989,-0.29979 0.6532,-0.7334 0.85184,-0.9639 0.19865,-0.2305 0.52471,-0.61968 0.72446,-0.865 0.19976,-0.2453 0.54898,-0.68536 0.77586,-0.97787 0.22686,-0.29252 0.6035,-0.79596 0.83706,-1.1187 0.23357,-0.3227 0.62777,-0.88847 0.87616,-1.2573 0.24838,-0.36879 0.62275,-0.94405 0.83174,-1.2782 0.20898,-0.33387 0.52918,-0.86194 0.71134,-1.1734 0.18216,-0.31123 0.43864,-0.76078 0.57023,-0.99882 0.13132,-0.23832 0.38612,-0.71581 0.56602,-1.0611 0.17993,-0.34561 0.45932,-0.90496 0.62109,-1.2433 0.16149,-0.33834 0.3755,-0.79767 0.47552,-1.0203 0.10002,-0.22267 0.26766,-0.60767 0.37243,-0.8552 0.10505,-0.24754 0.26821,-0.64345 0.36293,-0.88008 0.0947,-0.23636 0.26625,-0.68144 0.38109,-0.98877 0.11483,-0.30733 0.31515,-0.87309 0.44506,-1.2572 0.12992,-0.38417 0.31683,-0.96249 0.41518,-1.2852 0.0983,-0.32269 0.23692,-0.7943 0.30816,-1.0477 0.071,-0.25369 0.20955,-0.78174 0.30789,-1.1734 0.0981,-0.39198 0.22827,-0.93877 0.28917,-1.2154 0.0609,-0.27659 0.15506,-0.72922 0.20926,-1.0058 0.0542,-0.2766 0.13662,-0.72305 0.18328,-0.99183 0.0467,-0.26906 0.11567,-0.69009 0.15311,-0.93596 0.0377,-0.24586 0.10058,-0.69234 0.13969,-0.99183 0.0391,-0.29979 0.10254,-0.853 0.14082,-1.2293 0.0385,-0.37662 0.0886,-0.94239 0.11147,-1.2573 0.0229,-0.31515 0.0573,-0.84932 0.0763,-1.1874 0.0201,-0.35343 0.0349,-1.2916 0.0352,-2.2072 0,-0.94294 -0.0142,-1.8431 -0.0349,-2.2072 -0.0196,-0.33807 -0.0604,-0.94154 -0.0911,-1.3411 -0.0307,-0.39952 -0.0874,-1.0156 -0.12601,-1.369 -0.0388,-0.35343 -0.10812,-0.91892 -0.15422,-1.2564 -0.0458,-0.3375 -0.14025,-0.95244 -0.20954,-1.3662 -0.0693,-0.41406 -0.18747,-1.0556 -0.26263,-1.4258 -0.0752,-0.37047 -0.19445,-0.9248 -0.26514,-1.2321 -0.0707,-0.30733 -0.19166,-0.8041 -0.26905,-1.1036 -0.0774,-0.29979 -0.23329,-0.86555 -0.34617,-1.2572 -0.11315,-0.39199 -0.27631,-0.93259 -0.36264,-1.2014 -0.0863,-0.26905 -0.24586,-0.74682 -0.35455,-1.0617 -0.10868,-0.31516 -0.31683,-0.88707 -0.46295,-1.2712 -0.14612,-0.38416 -0.38472,-0.98148 -0.52998,-1.3271 -0.14557,-0.34589 -0.37159,-0.86752 -0.50261,-1.1595 -0.13103,-0.29196 -0.43668,-0.93314 -0.67973,-1.4249 -0.24307,-0.49172 -0.55069,-1.0952 -0.68365,-1.3411 -0.13327,-0.24586 -0.35622,-0.64817 -0.49563,-0.89405 -0.1397,-0.24586 -0.40456,-0.69847 -0.58868,-1.0058 -0.18412,-0.30733 -0.51577,-0.84068 -0.73677,-1.1849 -0.22128,-0.34449 -0.58561,-0.89123 -0.81023,-1.2153 -0.22435,-0.32381 -0.56019,-0.79657 -0.74596,-1.0499 -0.1858,-0.25368 -0.52024,-0.69566 -0.7432,-0.98203 -0.22295,-0.28638 -0.55792,-0.70767 -0.7443,-0.93596 -0.18663,-0.22826 -0.51155,-0.61631 -0.72224,-0.86219 -0.21066,-0.24586 -0.60461,-0.69234 -0.87536,-0.99183 -0.27073,-0.29979 -0.93902,-0.99154 -1.4849,-1.5378 -0.54621,-0.54592 -1.238,-1.2142 -1.5378,-1.4847 -0.2995,-0.27045 -0.74596,-0.6644 -0.99183,-0.87505 -0.24587,-0.21094 -0.75491,-0.63084 -1.1315,-0.93345 -0.37634,-0.30258 -0.95465,-0.75154 -1.2852,-0.99741 -0.33023,-0.24614 -0.80802,-0.5923 -1.0617,-0.76943 -0.2534,-0.17713 -0.68732,-0.47301 -0.96389,-0.65712 -0.2766,-0.18439 -0.78566,-0.51154 -1.1315,-0.72696 -0.34561,-0.21541 -0.92395,-0.56185 -1.2852,-0.76998 -0.36125,-0.20787 -0.92058,-0.51969 -1.2433,-0.6926 -0.3227,-0.17294 -0.8946,-0.46686 -1.2712,-0.6535 -0.37633,-0.18663 -0.88565,-0.43138 -1.1315,-0.54426 -0.24586,-0.11259 -0.68701,-0.30928 -0.98037,-0.43669 -0.29309,-0.1274 -0.81501,-0.3442 -1.1595,-0.48194 -0.34421,-0.13774 -0.83983,-0.32885 -1.1011,-0.42468 -0.26123,-0.0956 -0.66968,-0.24195 -0.90802,-0.32493 -0.23804,-0.0833 -0.72837,-0.24446 -1.0896,-0.35873 -0.36125,-0.114 -0.87646,-0.27017 -1.1455,-0.347 -0.26877,-0.0771 -0.72305,-0.20228 -1.0092,-0.27884 -0.2861,-0.0763 -0.8239,-0.20954 -1.1949,-0.29587 -0.37103,-0.0866 -0.92169,-0.20731 -1.2237,-0.26849 -0.30202,-0.0615 -0.78903,-0.15451 -1.0821,-0.20731 -0.29335,-0.0525 -0.82224,-0.13998 -1.1756,-0.19418 -0.35343,-0.0542 -0.90018,-0.13019 -1.2154,-0.16875 -0.31487,-0.0385 -0.81777,-0.095 -1.1176,-0.12544 -0.29951,-0.0302 -0.80882,-0.074 -1.1315,-0.0972 -0.3227,-0.0232 -0.81918,-0.0556 -1.1036,-0.0718 -0.28414,-0.0165 -1.1642,-0.0346 -1.9557,-0.0405 z m 18.481,25.246 c 0.21513,0.01 0.49173,0.033 0.61466,0.0514 0.12293,0.0184 0.33918,0.057 0.48027,0.0861 0.14137,0.0288 0.37382,0.0858 0.51687,0.12684 0.14305,0.0411 0.37327,0.11763 0.51155,0.17043 0.13829,0.0525 0.347,0.13858 0.46378,0.19138 0.11679,0.0525 0.33052,0.16037 0.47497,0.23972 0.14444,0.0791 0.3822,0.22575 0.52802,0.32605 0.14613,0.10002 0.35986,0.25788 0.47497,0.35063 0.11539,0.0928 0.34225,0.3023 0.50456,0.46547 0.16204,0.16344 0.39561,0.4311 0.51883,0.59511 0.12321,0.164 0.30341,0.43166 0.40064,0.59481 0.0972,0.16316 0.22994,0.41797 0.29504,0.56607 0.0651,0.14807 0.15841,0.38863 0.20759,0.53476 0.0489,0.14584 0.11315,0.36739 0.14304,0.49228 0.0296,0.12461 0.0727,0.35734 0.0953,0.51687 0.0358,0.25285 0.0414,2.3329 0.0417,16.262 5e-4,13.849 -0.005,15.998 -0.04,16.163 -0.0224,0.10477 -0.0645,0.26011 -0.0941,0.34477 -0.0294,0.0849 -0.0883,0.22323 -0.13104,0.30733 -0.0425,0.0844 -0.12824,0.22854 -0.19026,0.32074 -0.062,0.0922 -0.19557,0.25368 -0.29644,0.35873 -0.10085,0.10505 -0.26513,0.25145 -0.36516,0.32522 -0.0997,0.074 -0.26318,0.17908 -0.3632,0.23384 -0.0997,0.0545 -0.26962,0.13243 -0.37718,0.17294 -0.10757,0.0405 -0.28973,0.0978 -0.40512,0.12685 -0.1151,0.0294 -0.3917,0.0668 -0.61465,0.0833 -0.26906,0.0199 -1.6476,0.0263 -4.107,0.0193 l -3.7019,-0.0104 -0.25146,-0.0581 c -0.13829,-0.0319 -0.33331,-0.0855 -0.43305,-0.1193 -0.0997,-0.0338 -0.28218,-0.11204 -0.40512,-0.17378 -0.12293,-0.0618 -0.30537,-0.17015 -0.40511,-0.24111 -0.0997,-0.071 -0.27017,-0.21737 -0.37857,-0.32549 -0.10813,-0.10813 -0.24782,-0.27185 -0.31041,-0.36405 -0.0626,-0.0922 -0.15925,-0.25843 -0.21513,-0.36907 -0.0556,-0.11092 -0.13606,-0.31208 -0.17825,-0.44703 l -0.0771,-0.24558 -0.008,-15.925 c -0.006,-11.367 2.8e-4,-16.013 0.0221,-16.233 0.0168,-0.16903 0.0629,-0.45205 0.10198,-0.62863 0.0394,-0.17657 0.11511,-0.45345 0.16847,-0.61466 0.0534,-0.16148 0.1763,-0.4568 0.27352,-0.65656 0.0969,-0.19977 0.26347,-0.49536 0.3702,-0.65657 0.10672,-0.16149 0.26123,-0.37522 0.34336,-0.47496 0.0821,-0.0997 0.21933,-0.25648 0.3051,-0.34812 0.0858,-0.0917 0.25648,-0.25956 0.37941,-0.37327 0.12293,-0.11344 0.33667,-0.29085 0.47496,-0.39394 0.1383,-0.10338 0.37774,-0.26486 0.53195,-0.35957 0.15423,-0.0944 0.43725,-0.24671 0.62863,-0.33807 0.19138,-0.0914 0.49899,-0.2182 0.6834,-0.28218 0.18439,-0.0637 0.48725,-0.15227 0.67305,-0.19697 0.18579,-0.0447 0.46881,-0.1017 0.62862,-0.12628 0.16009,-0.0249 0.47329,-0.0534 0.69597,-0.0637 0.22295,-0.0101 0.58114,-0.0103 0.79626,-5.5e-4 z m -18.86,8.7998 c 0.37578,-0.002 0.713,0.0126 0.93596,0.0402 0.19166,0.0235 0.48949,0.0743 0.66189,0.11287 0.17211,0.0386 0.41099,0.0995 0.53084,0.13522 0.11958,0.036 0.34309,0.11231 0.49676,0.16987 0.15366,0.0573 0.44926,0.19027 0.65657,0.29531 0.20758,0.10506 0.50511,0.2766 0.66189,0.38109 0.15646,0.10421 0.38807,0.27157 0.51466,0.37131 0.12628,0.0997 0.3565,0.30844 0.51154,0.46323 0.15479,0.15506 0.36349,0.38555 0.46323,0.51209 0.10003,0.12657 0.25425,0.33946 0.3431,0.47273 0.0888,0.13327 0.23524,0.38696 0.3252,0.56356 0.09,0.17657 0.21039,0.44702 0.26794,0.60068 0.0573,0.15367 0.14053,0.42216 0.18468,0.59652 0.0442,0.17462 0.0992,0.46128 0.12237,0.63727 0.0366,0.27967 0.0419,1.7568 0.0416,11.836 l -5.1e-4,11.516 -0.0522,0.25425 c -0.029,0.13969 -0.0969,0.3565 -0.15143,0.48194 -0.0542,0.12517 -0.15898,0.31907 -0.23245,0.43027 -0.0738,0.11147 -0.23637,0.30537 -0.36153,0.43109 -0.12489,0.12573 -0.33667,0.29979 -0.4705,0.38696 -0.13383,0.0872 -0.34393,0.20228 -0.46713,0.25564 -0.12322,0.0534 -0.34561,0.12796 -0.49425,0.16596 -0.14863,0.0377 -0.42104,0.0805 -0.60541,0.0947 -0.18468,0.0145 -1.9099,0.0263 -3.8416,0.0263 -1.9912,0 -3.6561,-0.0115 -3.8528,-0.0268 -0.19669,-0.0154 -0.46015,-0.0573 -0.60988,-0.0972 -0.14501,-0.0385 -0.36572,-0.11483 -0.49033,-0.1696 -0.12461,-0.055 -0.33332,-0.1693 -0.46351,-0.25396 -0.12992,-0.0849 -0.34533,-0.26318 -0.47804,-0.39645 -0.145,-0.14557 -0.2995,-0.33667 -0.38695,-0.47916 -0.0802,-0.13048 -0.18189,-0.33164 -0.22631,-0.44702 -0.0444,-0.11539 -0.10086,-0.30677 -0.12517,-0.42524 l -0.0444,-0.2154 5.5e-4,-11.547 c 2.8e-4,-10.028 0.006,-11.585 0.0416,-11.837 0.0226,-0.15953 0.0668,-0.39841 0.0981,-0.53084 0.031,-0.13243 0.1003,-0.37299 0.15366,-0.53421 0.0537,-0.16149 0.17826,-0.45988 0.27744,-0.66325 0.0989,-0.2034 0.26095,-0.49284 0.36013,-0.64315 0.0992,-0.15031 0.26319,-0.37578 0.36432,-0.50122 0.10114,-0.12545 0.28806,-0.33276 0.4149,-0.46071 0.12712,-0.12768 0.33806,-0.32186 0.46853,-0.43138 0.13076,-0.10952 0.37578,-0.29168 0.54512,-0.40512 0.16903,-0.11315 0.4582,-0.2833 0.64259,-0.37801 0.18412,-0.0944 0.41685,-0.20619 0.51657,-0.24838 0.10003,-0.0422 0.32158,-0.12404 0.49284,-0.18216 0.17127,-0.0578 0.48559,-0.14444 0.69848,-0.19194 0.21289,-0.0475 0.51938,-0.10393 0.68059,-0.12517 0.16148,-0.0209 0.55767,-0.0397 0.88093,-0.0413 z m -17.979,8.8023 c 0.22268,0.0101 0.56743,0.045 0.76551,0.0774 0.19837,0.0327 0.48139,0.09 0.62918,0.1274 0.1478,0.0374 0.41937,0.11958 0.6035,0.18272 0.18412,0.0629 0.52331,0.20675 0.7538,0.31962 0.2305,0.11315 0.56994,0.30482 0.75436,0.42635 0.18439,0.12154 0.44842,0.31543 0.58672,0.4311 0.13829,0.11595 0.3836,0.34784 0.54481,0.51602 0.16148,0.16791 0.36488,0.39925 0.45205,0.51406 0.0872,0.1151 0.22994,0.32213 0.31683,0.46043 0.0872,0.1383 0.23105,0.40232 0.3199,0.58672 0.0888,0.1844 0.20172,0.45457 0.25061,0.60069 0.0489,0.14584 0.11902,0.38863 0.15562,0.53893 0.0366,0.15059 0.0866,0.43334 0.1112,0.62863 0.0397,0.31795 0.0436,1.1019 0.0363,7.5074 l -0.008,7.1526 -0.0771,0.24559 c -0.0422,0.13494 -0.12237,0.3361 -0.17825,0.44702 -0.0556,0.11064 -0.13941,0.25816 -0.18635,0.32717 -0.0467,0.069 -0.14668,0.19808 -0.2224,0.28609 -0.0754,0.0883 -0.23077,0.23581 -0.34476,0.32745 -0.11399,0.0916 -0.29196,0.21596 -0.39562,0.27603 -0.10337,0.0601 -0.30118,0.15395 -0.43948,0.20871 -0.1383,0.0548 -0.38332,0.1288 -0.54481,0.16428 l -0.29336,0.0645 h -3.9534 c -3.0065,0 -4.0006,-0.008 -4.1512,-0.0344 -0.10868,-0.019 -0.30984,-0.0668 -0.44703,-0.10617 -0.1369,-0.0397 -0.34979,-0.12098 -0.47272,-0.18076 -0.12293,-0.0598 -0.3051,-0.16289 -0.40512,-0.22855 -0.0997,-0.0659 -0.27771,-0.21177 -0.39534,-0.32409 -0.11762,-0.11203 -0.27631,-0.29447 -0.35258,-0.40539 -0.0766,-0.11092 -0.17658,-0.27688 -0.2224,-0.36908 -0.0461,-0.0922 -0.1098,-0.24949 -0.14193,-0.34923 -0.0321,-0.10003 -0.0721,-0.25704 -0.0891,-0.34924 -0.0218,-0.12014 -0.0279,-2.2373 -0.0212,-7.4596 l 0.01,-7.2923 0.0612,-0.27716 c 0.0335,-0.15255 0.0939,-0.39143 0.13383,-0.53084 0.0402,-0.13969 0.12935,-0.39198 0.19808,-0.56099 0.069,-0.16903 0.183,-0.41434 0.25369,-0.54481 0.0704,-0.13076 0.21317,-0.36321 0.31711,-0.51687 0.10421,-0.15367 0.29,-0.39981 0.41294,-0.54702 0.12293,-0.14752 0.32185,-0.35986 0.44199,-0.47217 0.12014,-0.1126 0.30034,-0.26961 0.40009,-0.34924 0.10002,-0.0799 0.30118,-0.22715 0.44702,-0.32744 0.14612,-0.1003 0.3836,-0.24698 0.52803,-0.32605 0.14444,-0.0793 0.35817,-0.18691 0.47496,-0.23972 0.11679,-0.0525 0.31292,-0.13439 0.43585,-0.1816 0.12293,-0.0472 0.37438,-0.12908 0.55878,-0.18161 0.1844,-0.0525 0.46714,-0.12042 0.62863,-0.15087 0.16148,-0.0305 0.43165,-0.0693 0.60068,-0.0863 0.16903,-0.017 0.40791,-0.0338 0.53084,-0.0374 0.12294,-0.003 0.40596,0.002 0.62863,0.012 z"
         id="path40" /></g><animate
       repeatCount="1"
       values="0; 0; 1"
       to="1"
       from="0"
       dur="4s"
       attributeName="opacity" /></g></svg>