<?xml version="1.0" encoding="UTF-8" standalone="no"?>
<svg
   xmlns:dc="http://purl.org/dc/elements/1.1/"
   xmlns:cc="http://creativecommons.org/ns#"
   xmlns:rdf="http://www.w3.org/1999/02/22-rdf-syntax-ns#"
   xmlns:svg="http://www.w3.org/2000/svg"
   xmlns="http://www.w3.org/2000/svg"
   id="svg11"
   xml:space="preserve"
   enable-background="new 0 0 200 200"
   viewBox="0 0 200 200"
   y="0px"
   x="0px"
   version="1.1"><metadata
     id="metadata15"><rdf:RDF><cc:Work
         rdf:about=""><dc:format>image/svg+xml</dc:format><dc:type
           rdf:resource="http://purl.org/dc/dcmitype/StillImage" /></cc:Work></rdf:RDF></metadata><defs
     id="defs282276" /><linearGradient
     spreadMethod="pad"
     y2="30%"
     x2="-10%"
     y1="120%"
     x1="30%"
     id="3d_gradient2-logo-110513f9-e89c-43af-bf48-d22bde0dfbdf"><stop
       id="stop282253"
       stop-opacity="1"
       stop-color="#ffffff"
       offset="0%" /><stop
       id="stop282255"
       stop-opacity="1"
       stop-color="#000000"
       offset="100%" /></linearGradient><linearGradient
     gradientTransform="rotate(-30)"
     spreadMethod="pad"
     y2="30%"
     x2="-10%"
     y1="120%"
     x1="30%"
     id="3d_gradient3-logo-110513f9-e89c-43af-bf48-d22bde0dfbdf"><stop
       id="stop282258"
       stop-opacity="1"
       stop-color="#ffffff"
       offset="0%" /><stop
       id="stop282260"
       stop-opacity="1"
       stop-color="#cccccc"
       offset="50%" /><stop
       id="stop282262"
       stop-opacity="1"
       stop-color="#000000"
       offset="100%" /></linearGradient><path
     style="fill:#083a67;stroke-width:0.66625589"
     d="m 100.45453,40.00364 c -1.049091,-0.0078 -2.249284,0 -2.666427,0.01741 -0.417482,0.01704 -1.05908,0.04964 -1.426187,0.07224 -0.367107,0.0226 -0.967604,0.06594 -1.334311,0.09669 -0.366734,0.03075 -0.991655,0.08928 -1.389144,0.130027 -0.397108,0.04112 -1.155754,0.132245 -1.685494,0.203367 -0.529726,0.07076 -1.363226,0.195593 -1.852191,0.27709 -0.488979,0.0815 -1.380616,0.247081 -1.981845,0.367846 -0.60085,0.120766 -1.451039,0.304133 -1.889235,0.407482 -0.437857,0.10335 -1.021304,0.246715 -1.296534,0.318577 -0.274864,0.07186 -0.683446,0.181515 -0.907574,0.243377 -0.224115,0.06186 -0.715692,0.203741 -1.092793,0.315245 -0.376734,0.111505 -0.952013,0.28709 -1.278012,0.39044 -0.325986,0.103349 -0.98426,0.325985 -1.463231,0.494908 -0.478605,0.168923 -1.003915,0.356733 -1.166881,0.417483 -0.162993,0.06038 -0.654563,0.251525 -1.092793,0.424151 -0.437857,0.172627 -1.149091,0.4649 -1.579892,0.649747 -0.431188,0.184846 -1.131303,0.497126 -1.555841,0.694172 -0.424892,0.197071 -1.197262,0.572327 -1.717008,0.834219 -0.519727,0.261532 -1.353233,0.699035 -1.852192,0.972 -0.498979,0.272646 -1.199127,0.667522 -1.555841,0.877593 -0.35636,0.20967 -0.979063,0.587884 -1.383613,0.840881 -0.404518,0.252638 -1.110915,0.710162 -1.570299,1.01684 -0.459343,0.306724 -1.128704,0.767194 -1.487683,1.023169 -0.358585,0.256342 -0.885321,0.640858 -1.170611,0.85494 -0.285238,0.214481 -0.793511,0.606039 -1.129837,0.87013 -0.335986,0.26449 -0.901244,0.721955 -1.255426,1.016507 -0.354508,0.294871 -0.907974,0.767193 -1.230242,1.049419 -0.322281,0.282273 -0.815697,0.725286 -1.096857,0.98386 -0.280793,0.258934 -0.942019,0.896448 -1.468761,1.417327 -0.527135,0.520839 -1.222046,1.226177 -1.544714,1.5677 -0.322655,0.341176 -0.827557,0.89125 -1.122042,1.222446 -0.294498,0.330803 -0.747206,0.851608 -1.006113,1.15722 -0.258934,0.305612 -0.699369,0.839016 -0.979063,1.185403 -0.279308,0.346359 -0.766794,0.971267 -1.082799,1.389143 -0.315985,0.417483 -0.784983,1.053884 -1.042424,1.413995 -0.257081,0.360065 -0.764928,1.102454 -1.128371,1.649916 -0.363403,0.547509 -0.87093,1.338375 -1.127971,1.757383 -0.257082,0.418969 -0.657901,1.093193 -0.890918,1.49881 -0.232636,0.405256 -0.620484,1.103519 -0.861668,1.551776 -0.241158,0.448231 -0.683446,1.315056 -0.983128,1.926279 -0.299682,0.611224 -0.664936,1.378017 -0.812032,1.704016 -0.147063,0.325986 -0.42156,0.959409 -0.610484,1.407666 -0.18855,0.44823 -0.485274,1.181671 -0.65938,1.629928 -0.173733,0.448231 -0.466379,1.241368 -0.650119,1.762514 -0.183367,0.521578 -0.458604,1.34657 -0.611223,1.833669 -0.15262,0.4875 -0.369699,1.210987 -0.482683,1.608475 -0.11261,0.397109 -0.288942,1.047221 -0.391185,1.44471 -0.10261,0.397108 -0.268941,1.080933 -0.369326,1.518797 -0.100758,0.437856 -0.258934,1.179872 -0.351916,1.64845 -0.09298,0.468604 -0.210777,1.085398 -0.261533,1.370622 -0.05075,0.285237 -0.142618,0.84348 -0.203741,1.240968 -0.0615,0.397108 -0.152619,1.039093 -0.202628,1.426187 -0.05038,0.387108 -0.125576,1.028699 -0.16707,1.426188 -0.04149,0.397108 -0.100392,1.022436 -0.130393,1.389143 -0.03037,0.366734 -0.07297,0.958343 -0.09446,1.315056 -0.02149,0.356361 -0.05519,1.073139 -0.07446,1.592885 -0.01963,0.519353 -0.03593,1.452837 -0.03593,2.074454 0,0.621224 0.0163,1.554714 0.03593,2.074454 0.01926,0.51936 0.05297,1.23617 0.07446,1.59289 0.02149,0.35636 0.07223,1.03982 0.112984,1.51879 0.04075,0.47861 0.115948,1.23724 0.167436,1.6855 0.05112,0.44823 0.134471,1.11504 0.18522,1.48175 0.05112,0.36674 0.158915,1.06688 0.240045,1.55584 0.08112,0.48898 0.23782,1.34024 0.348212,1.89144 0.110392,0.55158 0.269307,1.30173 0.353395,1.66697 0.08409,0.36562 0.21115,0.89791 0.282646,1.1832 0.0715,0.28524 0.204854,0.79351 0.296724,1.12984 0.09187,0.33599 0.283385,1.00278 0.426004,1.48175 0.142619,0.47861 0.381551,1.23724 0.531206,1.6855 0.149288,0.44823 0.407482,1.18726 0.57344,1.64252 0.166324,0.4549 0.452674,1.20352 0.636414,1.66324 0.184106,0.46009 0.472309,1.15469 0.641231,1.54365 0.16855,0.38896 0.429335,0.97386 0.578997,1.29986 0.149654,0.32599 0.482682,1.01757 0.740476,1.53732 0.257455,0.51973 0.644563,1.27208 0.860137,1.6725 0.215967,0.40045 0.503796,0.9257 0.640485,1.16688 0.136322,0.24153 0.3897,0.68052 0.563439,0.97614 0.173733,0.29523 0.522691,0.86793 0.774989,1.27248 0.252638,0.40451 0.710162,1.11091 1.01684,1.5703 0.306724,0.45934 0.767193,1.1287 1.023169,1.48768 0.256342,0.35858 0.641231,0.88532 0.855339,1.17061 0.214481,0.28524 0.598998,0.78532 0.854207,1.11132 0.255602,0.32598 0.712694,0.89091 1.016107,1.25542 0.303386,0.36452 0.782717,0.9265 1.06541,1.24876 0.282272,0.32229 0.725286,0.8157 0.98386,1.09686 0.258567,0.28079 0.921299,0.96647 1.472892,1.5236 0.551213,0.55714 1.310992,1.30099 1.687693,1.65291 0.377107,0.35192 0.902044,0.83202 1.16688,1.06721 0.264864,0.23486 0.731616,0.639 1.037227,0.89798 0.305612,0.25893 0.872396,0.72495 1.259491,1.03536 0.387108,0.3108 0.979063,0.77346 1.315056,1.02797 0.336359,0.25485 0.919766,0.68417 1.296534,0.95421 0.377107,0.26968 1.078002,0.75387 1.558439,1.07573 0.48009,0.32191 1.247297,0.8179 1.705482,1.10279 0.457864,0.2845 1.223579,0.74234 1.701417,1.01724 0.477866,0.27524 1.152423,0.65382 1.49881,0.84162 0.346359,0.18781 1.196529,0.62159 1.889235,0.96427 0.692706,0.34265 1.634725,0.78938 2.092976,0.99239 0.458604,0.20336 1.123508,0.49009 1.478022,0.63678 0.354882,0.14706 0.879791,0.35858 1.166881,0.47083 0.287463,0.11187 0.855739,0.32524 1.263221,0.47416 0.407482,0.14891 1.066143,0.3797 1.463231,0.51305 0.397109,0.13336 0.969469,0.31895 1.27095,0.41193 0.301907,0.0933 0.893849,0.2682 1.315056,0.38896 0.42156,0.12039 1.09166,0.30302 1.488815,0.40526 0.397482,0.10261 1.05575,0.26301 1.463232,0.3571 0.407482,0.0937 1.190932,0.26042 1.74106,0.37007 0.550101,0.10965 1.350234,0.25783 1.778103,0.32932 0.427857,0.0711 1.127972,0.17967 1.555841,0.24041 0.427856,0.0611 1.069807,0.14448 1.426188,0.1856 0.356733,0.0411 0.906841,0.10002 1.222446,0.13039 0.315985,0.0307 0.916102,0.0811 1.333578,0.11187 0.417856,0.0307 1.084664,0.0737 1.481753,0.0948 0.397482,0.0214 1.389144,0.0489 2.204108,0.0611 0.87719,0.0133 1.97298,0.005 2.68568,-0.02 0.66234,-0.0237 1.47062,-0.0596 1.79662,-0.08 0.32599,-0.0204 0.99279,-0.0708 1.48175,-0.1115 0.48898,-0.0411 1.25576,-0.11632 1.70402,-0.16744 0.44823,-0.0508 1.16502,-0.14262 1.59288,-0.20337 0.42786,-0.0611 1.12798,-0.16929 1.55585,-0.24004 0.42785,-0.0711 1.20319,-0.21375 1.72253,-0.31673 0.51973,-0.10335 1.3032,-0.27005 1.74106,-0.37081 0.43786,-0.10076 1.12171,-0.26709 1.5188,-0.3697 0.39748,-0.10261 1.07241,-0.28635 1.50028,-0.40822 0.42785,-0.12187 1.01983,-0.29672 1.31505,-0.38896 0.29561,-0.0919 0.91237,-0.29338 1.37062,-0.44749 0.45861,-0.15447 1.19207,-0.4134 1.62993,-0.57603 0.43786,-0.16262 1.08833,-0.4123 1.44471,-0.55455 0.35673,-0.14261 0.99019,-0.406 1.40767,-0.58566 0.41785,-0.17966 1.10132,-0.48416 1.51879,-0.67678 0.41786,-0.19263 1.10132,-0.52121 1.5188,-0.73015 0.41786,-0.20856 1.0261,-0.52158 1.3521,-0.69531 0.32599,-0.17373 0.89278,-0.48305 1.25949,-0.68751 0.36673,-0.20411 1.00018,-0.57121 1.40767,-0.81496 0.40748,-0.24412 0.99092,-0.60234 1.29653,-0.79604 0.30561,-0.19374 0.92236,-0.59789 1.37062,-0.89832 0.44823,-0.30005 1.12358,-0.76646 1.50028,-1.03609 0.3771,-0.27005 0.96054,-0.7001 1.29653,-0.95608 0.33636,-0.25597 0.85314,-0.65716 1.14836,-0.89165 0.29561,-0.23448 0.79571,-0.64271 1.11131,-0.90717 0.31599,-0.26449 0.84055,-0.7153 1.16615,-1.00165 0.32561,-0.28635 0.81716,-0.72715 1.09279,-0.9798 0.27561,-0.25227 1.06761,-1.02723 1.76032,-1.72254 0.69311,-0.69497 1.55251,-1.58882 1.91069,-1.98591 0.35784,-0.39748 0.86606,-0.9724 1.12944,-1.27801 0.26338,-0.30561 0.6957,-0.82162 0.96054,-1.14689 0.26486,-0.32524 0.72788,-0.90871 1.0287,-1.29653 0.30079,-0.38785 0.80017,-1.05535 1.10984,-1.48322 0.30969,-0.42786 0.83236,-1.17801 1.16169,-1.66698 0.32932,-0.48897 0.82569,-1.25169 1.10279,-1.69475 0.27708,-0.44267 0.70163,-1.14283 0.94315,-1.55584 0.24152,-0.41267 0.58159,-1.00871 0.75606,-1.32432 0.17411,-0.31598 0.51195,-0.94908 0.75047,-1.40693 0.23857,-0.45823 0.60901,-1.19986 0.8235,-1.64845 0.21411,-0.4486 0.49787,-1.05762 0.63048,-1.35283 0.13262,-0.29524 0.35488,-0.80571 0.4938,-1.13391 0.13928,-0.3282 0.35562,-0.85314 0.4812,-1.16688 0.12558,-0.31338 0.35302,-0.90351 0.50528,-1.31099 0.15225,-0.40748 0.41785,-1.15762 0.59011,-1.66697 0.17225,-0.50935 0.42007,-1.27615 0.55046,-1.70402 0.1304,-0.42785 0.31414,-1.05315 0.4086,-1.38914 0.0941,-0.33636 0.27783,-1.03649 0.40822,-1.55584 0.13003,-0.51973 0.30265,-1.2447 0.3834,-1.61141 0.0808,-0.36673 0.2056,-0.96687 0.27747,-1.33357 0.0719,-0.36674 0.18114,-0.95868 0.243,-1.31506 0.0619,-0.35673 0.15336,-0.91497 0.203,-1.24097 0.05,-0.32598 0.13336,-0.91797 0.18522,-1.31505 0.0518,-0.39749 0.13595,-1.13097 0.1867,-1.62993 0.0511,-0.49936 0.11743,-1.2495 0.14781,-1.66698 0.0304,-0.41785 0.0759,-1.1261 0.10113,-1.57436 0.0266,-0.4686 0.0463,-1.71254 0.0466,-2.926462 0,-1.25023 -0.0189,-2.44376 -0.0463,-2.926463 -0.0259,-0.44823 -0.08,-1.248364 -0.12076,-1.778104 -0.0408,-0.529726 -0.11595,-1.346569 -0.16707,-1.815147 -0.0515,-0.468605 -0.14336,-1.218382 -0.20448,-1.66584 -0.0608,-0.447491 -0.18596,-1.262821 -0.27783,-1.811416 -0.0919,-0.548989 -0.24856,-1.399538 -0.34821,-1.890368 -0.0996,-0.491204 -0.25783,-1.226178 -0.35154,-1.63366 -0.0937,-0.407482 -0.25413,-1.066143 -0.35674,-1.463231 -0.10261,-0.397482 -0.30931,-1.147626 -0.45897,-1.666972 -0.15003,-0.519727 -0.36636,-1.236505 -0.48083,-1.592885 -0.11447,-0.356733 -0.32598,-0.99019 -0.47009,-1.407666 -0.1441,-0.417855 -0.42007,-1.176141 -0.61381,-1.685494 -0.19374,-0.509352 -0.51009,-1.301331 -0.7027,-1.759582 -0.193,-0.458604 -0.49269,-1.150224 -0.66639,-1.537318 -0.17373,-0.387108 -0.57899,-1.237238 -0.90125,-1.889236 -0.32228,-0.651971 -0.73015,-1.452104 -0.90644,-1.778103 -0.17669,-0.325986 -0.47231,-0.859404 -0.65715,-1.185403 -0.18522,-0.325986 -0.5364,-0.926096 -0.78052,-1.333578 -0.24412,-0.407482 -0.68385,-1.114646 -0.97687,-1.571031 -0.29339,-0.456752 -0.77645,-1.181672 -1.07427,-1.611407 -0.29746,-0.429335 -0.74274,-1.056149 -0.98905,-1.392075 -0.24634,-0.336359 -0.68978,-0.922365 -0.9854,-1.302064 -0.29561,-0.379699 -0.73974,-0.938288 -0.98685,-1.240968 -0.24746,-0.302647 -0.67825,-0.817163 -0.95761,-1.143162 -0.27931,-0.325986 -0.80164,-0.917967 -1.16062,-1.315056 -0.35895,-0.397482 -1.24503,-1.314656 -1.96885,-2.038876 -0.72422,-0.723821 -1.64139,-1.609941 -2.03888,-1.96852 -0.39711,-0.358586 -0.98906,-0.880924 -1.31506,-1.160218 -0.32598,-0.279681 -1.00091,-0.836418 -1.50027,-1.237637 -0.49898,-0.401186 -1.26575,-0.996452 -1.70402,-1.322451 -0.43785,-0.326359 -1.07134,-0.785316 -1.40766,-1.020171 -0.33599,-0.234856 -0.91131,-0.627154 -1.27802,-0.871263 -0.36673,-0.244489 -1.04169,-0.678249 -1.50027,-0.963873 -0.45823,-0.28561 -1.22504,-0.74494 -1.70402,-1.020904 -0.47897,-0.275603 -1.22058,-0.689041 -1.64845,-0.9183 -0.42785,-0.229299 -1.18613,-0.619005 -1.68549,-0.866466 -0.49898,-0.247454 -1.17428,-0.571954 -1.50028,-0.721622 -0.32598,-0.149288 -0.9109,-0.410074 -1.29986,-0.578996 -0.3886,-0.168923 -1.0806,-0.456379 -1.53732,-0.639006 -0.45639,-0.182628 -1.11351,-0.436005 -1.4599,-0.563066 -0.34636,-0.126689 -0.88792,-0.320803 -1.20392,-0.430821 -0.31562,-0.110392 -0.96574,-0.324134 -1.44471,-0.47564 -0.47898,-0.151141 -1.16209,-0.358213 -1.5188,-0.460083 -0.35636,-0.102244 -0.95868,-0.268195 -1.33804,-0.369699 -0.37934,-0.101131 -1.0924,-0.277829 -1.58436,-0.392292 -0.49194,-0.114836 -1.22205,-0.274864 -1.62253,-0.355994 -0.40045,-0.0815 -1.04616,-0.204853 -1.43472,-0.274863 -0.38896,-0.06964 -1.09019,-0.185593 -1.55877,-0.257455 -0.4686,-0.07186 -1.19353,-0.172627 -1.61141,-0.223742 -0.41748,-0.05112 -1.08426,-0.125949 -1.48175,-0.166324 -0.39711,-0.04001 -1.07241,-0.09817 -1.50027,-0.128914 -0.42786,-0.03075 -1.08614,-0.07371 -1.46324,-0.0952 -0.37673,-0.02186 -1.54358,-0.04594 -2.59306,-0.05371 z m 24.50422,33.472697 c 0.28524,0.01296 0.65197,0.04371 0.81497,0.06816 0.16299,0.02445 0.44971,0.07557 0.63678,0.114096 0.18744,0.03816 0.49564,0.113723 0.68531,0.168176 0.18967,0.05445 0.49491,0.155958 0.67825,0.225968 0.18336,0.06964 0.46008,0.18374 0.61492,0.25375 0.15485,0.06964 0.43823,0.212629 0.62975,0.317837 0.19151,0.104836 0.50676,0.299316 0.7001,0.432301 0.19374,0.132618 0.47713,0.341915 0.62975,0.4649 0.15299,0.122984 0.45378,0.400812 0.66898,0.617152 0.21486,0.216707 0.52454,0.571588 0.68791,0.789047 0.16336,0.217446 0.40229,0.572327 0.53121,0.788647 0.12891,0.216334 0.30487,0.554179 0.39118,0.750538 0.0863,0.196332 0.21004,0.515282 0.27524,0.709029 0.0648,0.193368 0.15003,0.487127 0.18966,0.652711 0.0393,0.165218 0.0963,0.473788 0.12632,0.685311 0.0474,0.335247 0.0548,3.09316 0.0552,21.56204 6.7e-4,18.36201 -0.006,21.21159 -0.053,21.43012 -0.0296,0.13891 -0.0856,0.34487 -0.12483,0.45712 -0.0389,0.11261 -0.11706,0.29598 -0.17374,0.40748 -0.0563,0.11187 -0.17003,0.30302 -0.25227,0.42526 -0.0822,0.12225 -0.2593,0.33636 -0.39303,0.47564 -0.13373,0.13929 -0.35155,0.3334 -0.48416,0.4312 -0.13225,0.0982 -0.34896,0.23745 -0.48157,0.31005 -0.13225,0.0722 -0.35748,0.17559 -0.5001,0.2293 -0.14262,0.0537 -0.38414,0.12966 -0.53713,0.16819 -0.15262,0.0389 -0.51936,0.0885 -0.81497,0.11039 -0.35673,0.0263 -2.18445,0.0348 -5.44544,0.0256 l -4.90831,-0.0137 -0.33339,-0.0771 c -0.18337,-0.0422 -0.44193,-0.11335 -0.57418,-0.15817 -0.13225,-0.0448 -0.37414,-0.14855 -0.53714,-0.23041 -0.16299,-0.0819 -0.40489,-0.2256 -0.53713,-0.31969 -0.13225,-0.0941 -0.35821,-0.2882 -0.50194,-0.43156 -0.14336,-0.14336 -0.32858,-0.36044 -0.41156,-0.48269 -0.083,-0.12224 -0.21115,-0.34265 -0.28524,-0.48935 -0.0737,-0.14706 -0.1804,-0.41378 -0.23634,-0.5927 l -0.10224,-0.32561 -0.0111,-21.11498 c -0.008,-15.07071 3.8e-4,-21.231578 0.0292,-21.522732 0.0223,-0.224115 0.0834,-0.599371 0.13521,-0.833486 0.0522,-0.234116 0.15263,-0.601223 0.22338,-0.814964 0.0708,-0.214115 0.23375,-0.605667 0.36266,-0.87053 0.12854,-0.264864 0.34932,-0.656789 0.49083,-0.87053 0.14151,-0.214115 0.34636,-0.4975 0.45527,-0.629745 0.1089,-0.132246 0.29079,-0.340064 0.40451,-0.461569 0.11373,-0.121505 0.34007,-0.344135 0.50306,-0.494908 0.16299,-0.150401 0.44638,-0.385629 0.62975,-0.522318 0.18336,-0.137063 0.50083,-0.351177 0.7053,-0.476753 0.20448,-0.12521 0.57973,-0.327099 0.83348,-0.448231 0.25375,-0.121131 0.66161,-0.289314 0.90611,-0.374142 0.24449,-0.08446 0.64604,-0.201889 0.89238,-0.261159 0.24634,-0.05927 0.6216,-0.134837 0.83349,-0.167437 0.21226,-0.03297 0.62752,-0.07076 0.92276,-0.08446 0.29561,-0.01334 0.77053,-0.01371 1.05575,-7.33e-4 z M 99.952835,85.14381 c 0.498235,-0.0022 0.945355,0.01667 1.240965,0.05334 0.25412,0.03111 0.64901,0.09854 0.8776,0.149654 0.22819,0.05112 0.54491,0.131879 0.70383,0.17929 0.15855,0.04778 0.4549,0.148914 0.65864,0.225227 0.20374,0.07594 0.59567,0.252272 0.87053,0.391552 0.27524,0.139288 0.66972,0.366734 0.87759,0.505276 0.20745,0.138174 0.51454,0.360064 0.68238,0.492309 0.16744,0.132245 0.47268,0.408962 0.67825,0.614188 0.20523,0.205594 0.48194,0.511205 0.61419,0.678982 0.13262,0.16781 0.3371,0.450082 0.4549,0.62678 0.1178,0.176698 0.3119,0.513057 0.43118,0.747206 0.11928,0.234116 0.27895,0.592701 0.35526,0.796442 0.0759,0.203741 0.18632,0.559735 0.24485,0.790913 0.0586,0.231524 0.13151,0.611596 0.16226,0.844945 0.0485,0.370812 0.0556,2.329298 0.0552,15.692996 l -6.6e-4,15.26925 -0.0693,0.3371 c -0.0385,0.18522 -0.12854,0.47268 -0.20078,0.639 -0.0719,0.16596 -0.21078,0.42304 -0.3082,0.57048 -0.0978,0.1478 -0.3134,0.40489 -0.47935,0.57159 -0.16559,0.16669 -0.44638,0.39748 -0.62382,0.51305 -0.17744,0.11558 -0.45601,0.2682 -0.61937,0.33896 -0.16337,0.0707 -0.45824,0.16966 -0.65531,0.22003 -0.19707,0.05 -0.55825,0.10669 -0.80271,0.12559 -0.24486,0.0192 -2.5323,0.0348 -5.09352,0.0348 -2.640107,0 -4.847547,-0.0152 -5.108319,-0.0356 -0.260786,-0.0204 -0.610111,-0.0759 -0.808635,-0.1289 -0.192255,-0.0511 -0.484901,-0.15226 -0.650119,-0.22487 -0.165218,-0.073 -0.441934,-0.22448 -0.614555,-0.33672 -0.172253,-0.11261 -0.457864,-0.34895 -0.633822,-0.52565 -0.192255,-0.193 -0.397109,-0.44638 -0.513057,-0.6353 -0.106315,-0.173 -0.241158,-0.43972 -0.300055,-0.5927 -0.0589,-0.153 -0.133731,-0.40675 -0.165958,-0.56382 l -0.0589,-0.2856 7.33e-4,-15.30989 c 3.7e-4,-13.296475 0.0078,-15.360535 0.05519,-15.69433 0.03001,-0.211523 0.08853,-0.528247 0.130026,-0.703832 0.04112,-0.175585 0.132985,-0.494535 0.203741,-0.708297 0.07112,-0.214115 0.236341,-0.609744 0.367847,-0.879391 0.131132,-0.269681 0.345986,-0.653451 0.477492,-0.852741 0.131506,-0.199297 0.348952,-0.49824 0.483049,-0.664564 0.134097,-0.166324 0.381924,-0.441194 0.550101,-0.61085 0.168549,-0.169289 0.44823,-0.426743 0.621223,-0.571954 0.173367,-0.14521 0.49824,-0.386735 0.722755,-0.537135 0.224115,-0.150028 0.607519,-0.375622 0.852008,-0.501205 0.244116,-0.125209 0.552693,-0.273384 0.684911,-0.329317 0.132618,-0.05594 0.426377,-0.164472 0.65345,-0.241524 0.22708,-0.07668 0.643824,-0.191515 0.926096,-0.25449 0.282273,-0.06297 0.688642,-0.137802 0.902377,-0.165958 0.214115,-0.02778 0.739411,-0.0526 1.168013,-0.05483 z M 76.114199,96.814615 c 0.295238,0.01334 0.752336,0.05964 1.014974,0.10261 0.263011,0.04334 0.638267,0.11928 0.834219,0.168923 0.195959,0.04964 0.556031,0.158549 0.800173,0.242264 0.244117,0.08335 0.693839,0.274124 0.999451,0.423778 0.305611,0.150028 0.755667,0.404151 1.000183,0.565292 0.24449,0.161141 0.594554,0.418222 0.777921,0.571587 0.183367,0.153732 0.508613,0.461196 0.722354,0.684179 0.214115,0.222636 0.483795,0.529362 0.599371,0.681582 0.115575,0.15262 0.304872,0.42711 0.420074,0.61048 0.115576,0.18337 0.306351,0.53343 0.424152,0.77792 0.117801,0.24449 0.267455,0.6027 0.332282,0.79644 0.06483,0.19337 0.157809,0.51529 0.206333,0.71456 0.04853,0.19967 0.114835,0.57456 0.147435,0.83349 0.0526,0.42156 0.05779,1.46103 0.04816,9.95386 l -0.01074,9.48349 -0.102243,0.32561 c -0.05594,0.17892 -0.162254,0.44564 -0.236341,0.5927 -0.07372,0.1467 -0.184846,0.34229 -0.247081,0.43379 -0.06186,0.0915 -0.19448,0.26264 -0.294872,0.37933 -0.100018,0.11706 -0.305985,0.31265 -0.457118,0.43415 -0.15114,0.1215 -0.387108,0.28635 -0.524543,0.36599 -0.137062,0.0797 -0.399334,0.20412 -0.582701,0.27672 -0.183367,0.0726 -0.50824,0.17077 -0.722355,0.21782 l -0.38896,0.0856 h -5.241702 c -3.986275,0 -5.304329,-0.0111 -5.50394,-0.0456 -0.144098,-0.0252 -0.410813,-0.0885 -0.592701,-0.14077 -0.181515,-0.0526 -0.463787,-0.1604 -0.62678,-0.23967 -0.162993,-0.0793 -0.404518,-0.21597 -0.537136,-0.30302 -0.132245,-0.0874 -0.368213,-0.28079 -0.52417,-0.42971 -0.155957,-0.14854 -0.366361,-0.39044 -0.467492,-0.5375 -0.101497,-0.14707 -0.234115,-0.36711 -0.294871,-0.48935 -0.06112,-0.12225 -0.145584,-0.3308 -0.188184,-0.46305 -0.0426,-0.13262 -0.09557,-0.3408 -0.118167,-0.46305 -0.0289,-0.15929 -0.03704,-2.96644 -0.02816,-9.89057 l 0.01259,-9.6687 0.08112,-0.36748 c 0.04445,-0.20226 0.12447,-0.51898 0.177437,-0.70383 0.05334,-0.18522 0.171515,-0.51972 0.262639,-0.74381 0.0915,-0.22411 0.242637,-0.54936 0.336359,-0.72235 0.09335,-0.17337 0.282646,-0.48157 0.420447,-0.68531 0.138175,-0.20374 0.384517,-0.5301 0.547509,-0.725288 0.162993,-0.195593 0.426744,-0.477126 0.586032,-0.626041 0.159289,-0.149288 0.398222,-0.357473 0.530467,-0.463048 0.132618,-0.105948 0.399334,-0.301167 0.592701,-0.434152 0.193741,-0.132985 0.508613,-0.327465 0.700102,-0.4323 0.191515,-0.105202 0.4749,-0.247821 0.629745,-0.317837 0.154844,-0.06964 0.414891,-0.178184 0.577884,-0.240785 0.162992,-0.0626 0.496387,-0.171142 0.740876,-0.240785 0.244489,-0.06964 0.619372,-0.159662 0.833486,-0.200037 0.214115,-0.04037 0.572327,-0.09187 0.796443,-0.114463 0.224115,-0.0226 0.540839,-0.04483 0.703832,-0.04964 0.162993,-0.0045 0.538248,0.0026 0.833486,0.01593 z"
     id="icon" /></svg>