<?xml version="1.0" encoding="UTF-8" standalone="no"?>
<svg
   xmlns:dc="http://purl.org/dc/elements/1.1/"
   xmlns:cc="http://creativecommons.org/ns#"
   xmlns:rdf="http://www.w3.org/1999/02/22-rdf-syntax-ns#"
   xmlns:svg="http://www.w3.org/2000/svg"
   xmlns="http://www.w3.org/2000/svg"
   id="svg5"
   xml:space="preserve"
   viewBox="255 335 512 97"
   y="0px"
   x="0px"
   version="1.1"><metadata
     id="metadata11"><rdf:RDF><cc:Work
         rdf:about=""><dc:format>image/svg+xml</dc:format><dc:type
           rdf:resource="http://purl.org/dc/dcmitype/StillImage" /></cc:Work></rdf:RDF></metadata><defs
     id="defs9" /><g
     transform="matrix(1.0684,0,0,1.0684,-37.331,-27.575)"
     id="logo-group"><path
       stroke-miterlimit="2"
       d="m 458.88,341.88 c -0.54,0.06 -1.2312,0.23927 -2.0712,0.53927 -2.7,1.02 -5.9396,1.7999 -9.7196,2.3399 -0.48002,0.06 -0.84039,0.27067 -1.0804,0.63067 -0.24,0.3 -0.36013,0.62898 -0.36013,0.98896 0,0.78 0.1811,1.29 0.5411,1.5301 0.36,0.18 0.89964,0.27054 1.6196,0.27054 1.56,0 2.6707,0.26981 3.3307,0.80983 0.66,0.53998 1.0186,1.1702 1.0785,1.8902 0.12002,0.72 0.18098,1.8602 0.18098,3.4202 v 13.771 H 452.129 c -1.38,-0.78 -2.9989,-1.3806 -4.8589,-1.8006 -1.86,-0.48002 -3.721,-0.72026 -5.581,-0.72026 -3.9,0 -7.439,0.99057 -10.619,2.9706 -3.18,1.98003 -5.6711,4.619 -7.4712,7.919 -1.8,3.3 -2.7,6.8113 -2.7,10.531 0,4.14 0.87043,7.8601 2.6104,11.16 1.74,3.24 4.0501,5.7885 6.9301,7.6485 2.88,1.8 5.9995,2.7 9.3595,2.7 2.22,0 4.4414,-0.51006 6.6614,-1.5301 2.28,-1.02 4.1983,-2.3395 5.7583,-3.9595 h 0.27056 v 3.6012 c 0,0.66002 0.0296,1.1091 0.0896,1.3491 0.06,0.3 0.30024,0.4497 0.72024,0.4497 l 14.31,-0.98896 c 1.02,-0.18002 1.5301,-0.69007 1.5301,-1.5301 0,-0.96 -0.51006,-1.4405 -1.5301,-1.4405 -4.68,0 -7.0196,-1.7704 -7.0196,-5.3104 v -55.53 c 0,-1.14 -0.48048,-1.7092 -1.4405,-1.7092 z m 279.48,13.229 c -1.02,0 -1.6798,0.38993 -1.9798,1.1699 -0.78002,2.28 -1.4398,3.9894 -1.9798,5.1294 -0.53997,1.08 -1.4104,2.1001 -2.6104,3.0601 -1.14,0.90002 -2.7607,1.5598 -4.8607,1.9798 -0.42001,0.06 -0.74897,0.30024 -0.98897,0.72024 -0.18,0.36 -0.27054,0.81093 -0.27054,1.3509 0,0.42 0.12013,0.80996 0.36011,1.1699 0.24002,0.3 0.53938,0.4497 0.8994,0.4497 l 5.2209,-0.17915 v 26.459 c 0,4.02 1.0497,7.11 3.1497,9.2699 2.1,2.16 4.6207,3.2411 7.5607,3.2411 2.1,0 3.9,-0.21066 5.4,-0.63066 1.56,-0.36002 3.2103,-1.1103 4.9503,-2.2503 0.36,-0.3 0.53927,-0.56982 0.53927,-0.80982 0,-0.18 -0.0296,-0.32969 -0.0896,-0.44969 -0.24002,-0.54002 -0.48024,-0.95952 -0.72025,-1.2595 -0.23999,-0.35998 -0.5708,-0.54109 -0.99079,-0.54109 -0.18001,0 -0.65865,0.14969 -1.4387,0.4497 -1.44,0.65998 -3.0903,0.99078 -4.9503,0.99078 -1.86,0 -3.2109,-0.65975 -4.0509,-1.9798 -0.78,-1.32 -1.17,-2.9703 -1.1699,-4.9503 v -27.36 l 10.08,0.27055 c 0.3,0 0.54024,-0.26982 0.72024,-0.80982 0.24,-0.6 0.36012,-1.2302 0.36012,-1.8902 0,-1.14 -0.38994,-1.711 -1.1699,-1.711 h -0.17914 l -10.531,0.63067 0.63067,-10.261 c 0,-0.42 -0.21067,-0.71939 -0.63067,-0.89939 -0.42,-0.24 -0.83951,-0.36012 -1.2595,-0.36012 z m -174.19,9.4509 c -0.54,0 -1.0501,0.29939 -1.5301,0.89939 -0.47998,0.54 -0.93091,1.2903 -1.3509,2.2503 -0.42,0.9 -0.71939,1.5302 -0.89939,1.8902 h -0.44969 c -0.36002,-0.18 -1.0807,-0.56993 -2.1607,-1.1699 -1.02,-0.66 -2.4301,-1.2902 -4.2301,-1.8902 -1.74,-0.66 -3.9299,-0.9908 -6.5699,-0.9908 -3.6,0 -7.0189,0.92958 -10.259,2.7896 -3.18,1.86 -5.7303,4.4103 -7.6503,7.6503 -1.92,3.18 -2.881,6.6913 -2.881,10.531 0,4.32 0.84087,8.1584 2.5208,11.518 1.74,3.36 4.0796,5.9399 7.0196,7.7399 2.94,1.8 6.1501,2.7 9.6301,2.7 2.52,0 4.83,-0.51006 6.9301,-1.5301 2.1,-1.02 3.7799,-2.2194 5.0399,-3.5994 h 0.27056 v 13.229 c 0,1.44 -0.0906,2.5507 -0.27056,3.3307 -0.12,0.78002 -0.50992,1.4398 -1.1699,1.9798 -0.65998,0.54 -1.7097,0.80982 -3.1497,0.80982 -0.78,0 -1.3196,0.061 -1.6196,0.18097 -0.23998,0.18002 -0.38969,0.6605 -0.44969,1.4405 0,0.48 0.11828,0.8995 0.3583,1.2595 0.24,0.35998 0.57079,0.53927 0.99079,0.53927 3.54,-0.18002 6.6595,-0.27055 9.3595,-0.27055 2.76,0 5.9109,0.0905 9.4509,0.27055 0.48,0 0.84037,-0.17929 1.0804,-0.53927 0.24002,-0.36002 0.36013,-0.77952 0.36013,-1.2595 -0.06,-0.72 -0.21154,-1.1709 -0.45152,-1.3509 -0.18001,-0.17998 -0.53853,-0.27054 -1.0786,-0.27054 h -0.54109 c -1.5,0 -2.5793,-0.26982 -3.2393,-0.80982 -0.66,-0.54 -1.0499,-1.1997 -1.1699,-1.9798 -0.12,-0.77998 -0.18098,-1.8907 -0.18098,-3.3307 v -50.22 c 0,-0.54 -0.14969,-0.95951 -0.44969,-1.2595 -0.3,-0.36002 -0.71953,-0.53928 -1.2595,-0.53928 z m 122.1,0.53928 c -0.36,0.06 -1.0493,0.23926 -2.0693,0.53926 -2.52,0.96 -5.7301,1.7399 -9.6301,2.3399 -0.48,0.06 -0.84035,0.27067 -1.0804,0.63067 -0.23998,0.3 -0.36011,0.63079 -0.36011,0.99079 0,0.78002 0.17925,1.2901 0.53927,1.5301 0.36,0.18 0.90146,0.26872 1.6215,0.26872 1.56,0 2.6688,0.26984 3.3288,0.80982 0.66,0.54 1.0204,1.1702 1.0804,1.8902 0.12,0.71999 0.17915,1.8602 0.17915,3.4202 v 20.611 c 0,1.56 -0.0591,2.6984 -0.17915,3.4184 -0.06,0.72002 -0.42037,1.3502 -1.0804,1.8902 -0.66,0.53998 -1.7689,0.80981 -3.3288,0.80981 -0.78,0 -1.3215,0.0905 -1.6215,0.27054 -0.30001,0.12 -0.47929,0.57094 -0.53927,1.3509 0,0.48 0.12013,0.89951 0.36011,1.2595 0.30001,0.35998 0.66037,0.53927 1.0804,0.53927 3.54,-0.18002 6.6595,-0.26872 9.3595,-0.26872 2.82,0 5.9691,0.0887 9.4491,0.26872 0.48002,0 0.84039,-0.17929 1.0804,-0.53927 0.24,-0.36001 0.36013,-0.77952 0.36013,-1.2595 -0.06,-0.72 -0.2097,-1.1709 -0.4497,-1.3509 -0.24,-0.17998 -0.60035,-0.27054 -1.0804,-0.27054 h -0.53926 c -1.56,0 -2.6707,-0.26983 -3.3307,-0.80981 -0.66,-0.54002 -1.0499,-1.1702 -1.1699,-1.8902 -0.12,-0.72 -0.17914,-1.8584 -0.17914,-3.4184 v -21.421 c 0.72,-1.44 2.0691,-2.8205 4.0491,-4.1405 1.98,-1.38 4.351,-2.0693 7.111,-2.0693 2.28,0 4.2888,0.7503 6.0288,2.2503 1.74,1.44 2.6104,3.5394 2.6104,6.2994 v 19.081 c 0,1.56 -0.0593,2.6984 -0.17915,3.4184 -0.12,0.72002 -0.50996,1.3502 -1.1699,1.8902 -0.66002,0.53998 -1.7707,0.80981 -3.3307,0.80981 -0.78,0 -1.3196,0.0905 -1.6196,0.27054 -0.24002,0.12 -0.38972,0.57094 -0.4497,1.3509 0,0.48 0.11829,0.89951 0.35829,1.2595 0.3,0.35998 0.66037,0.53927 1.0804,0.53927 3.54,-0.18002 6.6613,-0.26872 9.3613,-0.26872 2.82,0 5.9691,0.0887 9.4491,0.26872 0.42,0 0.7508,-0.17929 0.9908,-0.53927 0.3,-0.36001 0.4497,-0.77952 0.4497,-1.2595 -0.06,-0.72 -0.2097,-1.1709 -0.4497,-1.3509 -0.24,-0.17998 -0.60035,-0.27054 -1.0804,-0.27054 h -0.54109 c -1.56,0 -2.6688,-0.26983 -3.3288,-0.80981 -0.66001,-0.54002 -1.0499,-1.1702 -1.1699,-1.8902 -0.12002,-0.72 -0.18098,-1.8584 -0.18098,-3.4184 v -19.171 c 0,-4.02 -1.1994,-7.2596 -3.5994,-9.7196 -2.4,-2.46 -5.6396,-3.6908 -9.7196,-3.6908 -2.34,0 -4.3802,0.3308 -6.1202,0.9908 -1.68,0.6 -3.0605,1.3503 -4.1405,2.2503 -1.08,0.84002 -2.49,2.069 -4.2301,3.689 h -0.27055 v -5.6706 c 0,-1.14 -0.47864,-1.7092 -1.4387,-1.7092 z m -290.48,0.44968 c -3.96,0 -7.4695,1.0201 -10.529,3.0601 -3.06,2.04 -5.4292,4.7104 -7.1092,8.0104 -1.62,3.24 -2.4313,6.6293 -2.4313,10.169 0,4.02 0.81128,7.681 2.4313,10.981 1.62002,3.3 3.9892,5.9094 7.1092,7.8294 3.18,1.92 7.0202,2.8792 11.52,2.8792 3.6,0 6.8101,-0.80945 9.6301,-2.4294 2.88,-1.68 5.2492,-4.0196 7.1092,-7.0196 0.12,-0.18 0.18097,-0.4498 0.18097,-0.80982 0,-0.72 -0.29938,-1.2596 -0.89938,-1.6196 -0.3,-0.24 -0.66037,-0.36012 -1.0804,-0.36012 -0.3,0 -0.60122,0.14969 -0.90122,0.4497 -1.62,2.64 -3.3294,4.5305 -5.1294,5.6705 -1.8,1.08 -3.99,1.6196 -6.5699,1.6196 -4.86,0 -8.46,-1.6207 -10.8,-4.8607 -2.28,-3.3 -3.4202,-7.739 -3.4202,-13.319 h 21.871 c 2.04,0 3.5998,-0.36036 4.6798,-1.0804 1.08,-0.72 1.6196,-2.0709 1.6196,-4.0509 -0.42002,-4.62 -2.0703,-8.2791 -4.9503,-10.979 -2.88,-2.76 -6.9901,-4.1405 -12.33,-4.1405 z m 250.33,0 c -3.96,0 -7.3493,0.75031 -10.169,2.2503 -2.76,1.5 -4.1405,3.81 -4.1405,6.9301 0,1.8 0.51007,3.3598 1.5301,4.6798 1.08,1.32 2.5196,1.9798 4.3196,1.9798 1.08,0 1.98,-0.26982 2.7,-0.80982 0.78,-0.6 1.1699,-1.0805 1.1699,-1.4405 0,-0.06 -0.26982,-0.29842 -0.80982,-0.71842 -0.48,-0.42 -0.95867,-0.93006 -1.4387,-1.5301 -0.42002,-0.66 -0.63067,-1.4713 -0.63067,-2.4313 0,-1.92 0.68933,-3.4502 2.0693,-4.5902 1.37997,-1.14 3.0007,-1.7092 4.8607,-1.7092 3.24,0 5.5796,0.77986 7.0196,2.3399 1.5,1.5 2.2503,3.7195 2.2503,6.6595 v 7.111 c -5.52,0.3 -10.02,0.74908 -13.5,1.3491 -3.48,0.54001 -6.4794,1.7708 -8.9994,3.6908 -2.52,1.86 -3.7804,4.6801 -3.7804,8.4601 0,3.06 1.1088,5.6103 3.3288,7.6503 2.22,2.04 5.1307,3.0583 8.7307,3.0583 3,0 5.7906,-0.62834 8.3706,-1.8884 2.64,-1.26 4.5897,-3.06 5.8497,-5.4 0.24,2.22 1.2306,3.9886 2.9706,5.3086 1.74,1.32 3.7488,1.9798 6.0288,1.9798 1.08,0 2.1611,-0.17925 3.2411,-0.53927 1.14,-0.3 1.7092,-0.81006 1.7092,-1.5301 0,-0.59999 -0.12012,-0.98994 -0.36012,-1.1699 -0.18002,-0.18 -0.50896,-0.27055 -0.98897,-0.27055 -1.62,0 -2.7898,-0.56921 -3.5098,-1.7092 -0.72,-1.13999 -1.1099,-2.3394 -1.1699,-3.5994 v -20.971 c 0,-5.04 -1.5616,-8.4903 -4.6816,-10.35 -3.06,-1.86 -7.0499,-2.7896 -11.97,-2.7896 z m -161.94,0.4497 c -0.54002,0.06 -1.2294,0.2411 -2.0693,0.5411 -2.7,1.02 -5.9396,1.7999 -9.7196,2.3399 -0.47998,0.06 -0.84036,0.26884 -1.0804,0.62884 -0.24,0.3 -0.36012,0.63078 -0.36012,0.9908 0,0.77998 0.17928,1.2901 0.53926,1.53 0.36002,0.18 0.89964,0.27056 1.6196,0.27055 1.56,0 2.6707,0.26982 3.3307,0.80982 0.66,0.54 1.0204,1.1702 1.0804,1.8902 0.11998,0.72 0.17915,1.8602 0.17915,3.4202 v 16.65 c 0,4.02 1.2012,7.2596 3.6012,9.7196 2.4,2.46 5.6396,3.689 9.7196,3.689 2.34,0 4.3488,-0.32896 6.0288,-0.98896 1.74,-0.60001 3.1501,-1.3207 4.2301,-2.1607 1.08,-0.9 2.4901,-2.1604 4.2301,-3.7804 h 0.18098 v 5.0417 c 0,0.66002 0.0296,1.1091 0.0896,1.3491 0.06,0.3 0.30024,0.4497 0.72024,0.4497 l 14.491,-0.98896 c 1.02,-0.18002 1.5301,-0.69007 1.5301,-1.5301 0,-1.14 -0.51007,-1.711 -1.5301,-1.711 -4.74,0 -7.111,-1.7704 -7.111,-5.3104 v -31.139 c 0,-1.14 -0.4805,-1.711 -1.4405,-1.711 h -0.26872 c -0.54002,0.06 -1.2312,0.2411 -2.0712,0.5411 -2.7,1.02 -5.9396,1.7999 -9.7196,2.3399 -0.48002,0.06 -0.84037,0.26884 -1.0804,0.62884 -0.24,0.3 -0.36012,0.63078 -0.36012,0.9908 0,0.77998 0.18111,1.2901 0.54109,1.53 0.36002,0.18 0.89964,0.27056 1.6196,0.27055 1.56,2e-5 2.6707,0.26982 3.3307,0.80982 0.66,0.54 1.0185,1.1702 1.0785,1.8902 0.12,0.72 0.18098,1.8602 0.18098,3.4202 v 18.9 c -0.66002,1.38 -1.9795,2.7587 -3.9595,4.1386 -1.98,1.38 -4.3806,2.0712 -7.2006,2.0712 -2.28,0 -4.2907,-0.72073 -6.0307,-2.1607 -1.74,-1.5 -2.6086,-3.6308 -2.6086,-6.3908 v -27.269 c 0,-1.14 -0.48049,-1.711 -1.4405,-1.711 z m 103.36,0 c -0.54,0.06 -1.2312,0.2411 -2.0712,0.5411 -2.7,1.02 -5.9396,1.7999 -9.7196,2.3399 -0.47998,0.06 -0.84036,0.26884 -1.0804,0.62884 -0.24,0.3 -0.36012,0.63078 -0.36012,0.9908 0,0.77998 0.18109,1.2901 0.5411,1.53 0.35998,0.18 0.89963,0.27056 1.6196,0.27055 1.56,0 2.6688,0.26982 3.3288,0.80982 0.66,0.54 1.0204,1.1702 1.0804,1.8902 0.12,0.72 0.18097,1.8602 0.18097,3.4202 v 16.65 c 0,4.02 1.1994,7.2596 3.5994,9.7196 2.4,2.46 5.6396,3.689 9.7196,3.689 2.34,0 4.3507,-0.32896 6.0307,-0.98896 1.74,-0.60001 3.15,-1.3207 4.2301,-2.1607 1.08,-0.9 2.4901,-2.1604 4.2301,-3.7804 h 0.17915 v 5.0417 c 0,0.66002 0.0313,1.1091 0.0914,1.3491 0.06,0.3 0.29842,0.4497 0.71842,0.4497 l 14.491,-0.98896 c 1.02,-0.18002 1.5301,-0.69007 1.5301,-1.5301 0,-1.14 -0.51007,-1.711 -1.5301,-1.711 -4.74,0 -7.1092,-1.7704 -7.1092,-5.3104 v -31.139 c 0,-1.14 -0.48049,-1.711 -1.4405,-1.711 h -0.27055 c -0.54,0.06 -1.2293,0.2411 -2.0693,0.5411 -2.7,1.02 -5.9396,1.7999 -9.7196,2.3399 -0.47998,0.06 -0.84036,0.26884 -1.0804,0.62884 -0.24002,0.3 -0.36013,0.63078 -0.36013,0.9908 0,0.77998 0.17929,1.2901 0.53927,1.53 0.36002,0.18 0.89964,0.27056 1.6196,0.27055 1.56,2e-5 2.6707,0.26982 3.3307,0.80982 0.66,0.54 1.0204,1.1702 1.0804,1.8902 0.12,0.72 0.17915,1.8602 0.17915,3.4202 v 18.9 c -0.66,1.38 -1.9795,2.7587 -3.9595,4.1386 -1.98,1.38 -4.3806,2.0712 -7.2006,2.0712 -2.28,0 -4.2888,-0.72073 -6.0288,-2.1607 -1.74,-1.5 -2.6104,-3.6308 -2.6104,-6.3908 v -27.269 c 0,-1.14 -0.48049,-1.711 -1.4405,-1.711 z m -191.74,2.7 c 2.76,0 4.8908,0.96097 6.3908,2.881 1.5,1.92003 2.2503,4.2596 2.2503,7.0196 -0.18002,2.52 -1.8007,3.7804 -4.8607,3.7804 h -14.68 c 0.23999,-4.26 1.3507,-7.5902 3.3307,-9.9902 1.98,-2.46 4.4989,-3.6908 7.5589,-3.6908 z m 151.64,0 c 2.82,0 5.0709,0.69115 6.7509,2.0712 1.68,1.32 2.8202,2.8798 3.4202,4.6798 v 24.39 c -1.26,1.32 -2.6405,2.3697 -4.1405,3.1497 -1.44,0.72 -3.1495,1.0804 -5.1295,1.0804 -4.44,0 -7.7406,-1.5893 -9.9006,-4.7693 -2.1,-3.18 -3.1497,-7.1404 -3.1497,-11.88 0,-3.78 0.51007,-7.0806 1.5301,-9.9006 1.08,-2.82 2.5492,-4.9804 4.4092,-6.4804 1.86,-1.56 3.9298,-2.3399 6.2098,-2.3399 z m -104.84,0.0913 c 2.58,2e-5 4.7108,0.7189 6.3908,2.1589 1.74,1.44 2.8802,3.0312 3.4202,4.7712 v 23.759 c -1.32,1.38 -2.7301,2.4907 -4.2301,3.3307 -1.44,0.78 -3.2104,1.1699 -5.3104,1.1699 -4.08,0 -7.2291,-1.5911 -9.4491,-4.7712 -2.16,-3.24 -3.2411,-7.169 -3.2411,-11.789 0,-3.84 0.53964,-7.1702 1.6196,-9.9902 1.07996,-2.82 2.551,-4.9508 4.411,-6.3908 1.92,-1.5 4.049,-2.2485 6.389,-2.2485 z m 212.26,18.088 v 5.1313 c 0,2.16 -0.51006,4.1393 -1.5301,5.9393 -1.02,1.74 -2.4005,3.1205 -4.1405,4.1405 -1.74,1.02 -3.6287,1.5301 -5.6687,1.5301 -3.9,0 -5.8515,-2.0402 -5.8515,-6.1202 0,-3.48 1.29,-6.0007 3.87,-7.5607 2.58,-1.56 7.0208,-2.5801 13.321,-3.0601 z"
       style="font-variant-ligatures:none;fill:#ffffff;stroke-width:0;stroke-miterlimit:2"
       id="path282281" /><path
       style="fill:#ffffff;stroke-width:0.5025"
       d="m 320.14,339.96 c -0.79071,-0.006 -1.6965,-2.9e-4 -2.0108,0.0128 -0.31487,0.0129 -0.798,0.0359 -1.0749,0.053 -0.27689,0.017 -0.73067,0.0499 -1.0072,0.0731 -0.27659,0.0232 -0.74767,0.0679 -1.0475,0.0987 -0.29951,0.031 -0.87094,0.0999 -1.2705,0.15356 -0.39952,0.0534 -1.0278,0.14693 -1.3966,0.20839 -0.3688,0.0615 -1.0419,0.18678 -1.4953,0.27786 -0.45316,0.0911 -1.0935,0.22916 -1.424,0.30711 -0.33024,0.0779 -0.77041,0.18711 -0.978,0.2413 -0.2073,0.0542 -0.51647,0.13615 -0.68551,0.18281 -0.16902,0.0467 -0.54003,0.15354 -0.82444,0.23763 -0.28414,0.0842 -0.71749,0.21637 -0.96337,0.29432 -0.24586,0.0779 -0.74288,0.2455 -1.1041,0.37292 -0.36097,0.1274 -0.75636,0.27043 -0.87928,0.31624 -0.12294,0.0455 -0.49393,0.18971 -0.82444,0.31991 -0.33023,0.1302 -0.86697,0.35051 -1.1919,0.48992 -0.32521,0.13941 -0.85341,0.3742 -1.1736,0.52281 -0.32046,0.14864 -0.90224,0.43132 -1.2942,0.62885 -0.39198,0.19726 -1.0203,0.52716 -1.3966,0.73303 -0.37633,0.20564 -0.90456,0.50331 -1.1736,0.66175 -0.26879,0.15813 -0.73869,0.44352 -1.0438,0.63433 -0.30509,0.19054 -0.83808,0.53647 -1.1846,0.76777 -0.34644,0.23133 -0.85166,0.57836 -1.1224,0.77143 -0.27045,0.19333 -0.66777,0.48383 -0.88294,0.64529 -0.21513,0.16177 -0.5982,0.45709 -0.85187,0.65627 -0.25341,0.19947 -0.67979,0.54379 -0.94692,0.76594 -0.26737,0.2224 -0.68375,0.57868 -0.9268,0.79153 -0.24307,0.2129 -0.61604,0.54717 -0.82811,0.74219 -0.21176,0.19529 -0.7105,0.67655 -1.1078,1.0694 -0.39757,0.39281 -0.9211,0.92516 -1.1644,1.1827 -0.24335,0.25732 -0.62428,0.67154 -0.84638,0.92133 -0.22212,0.2495 -0.56336,0.64148 -0.75863,0.87197 -0.1953,0.2305 -0.52758,0.63266 -0.73853,0.89391 -0.21066,0.26122 -0.57879,0.73411 -0.81713,1.0493 -0.23833,0.31487 -0.59188,0.79414 -0.78605,1.0657 -0.1939,0.27156 -0.57776,0.83198 -0.85186,1.2449 -0.27408,0.41294 -0.65618,1.0093 -0.85004,1.3253 -0.1939,0.316 -0.49696,0.8238 -0.67272,1.1297 -0.17544,0.30565 -0.46704,0.83186 -0.64895,1.1699 -0.18187,0.33806 -0.51615,0.99229 -0.74217,1.4533 -0.22602,0.461 -0.50145,1.0392 -0.61239,1.2851 -0.11091,0.24587 -0.31818,0.72401 -0.46067,1.0621 -0.14221,0.33807 -0.36591,0.89035 -0.49722,1.2284 -0.13105,0.33805 -0.35133,0.93775 -0.48992,1.3308 -0.13829,0.39339 -0.34555,1.0146 -0.46065,1.382 -0.11512,0.36768 -0.27858,0.91402 -0.36379,1.2138 -0.0849,0.2995 -0.21903,0.78971 -0.29613,1.0895 -0.0774,0.29951 -0.20216,0.81593 -0.27787,1.1462 -0.076,0.33024 -0.19493,0.88965 -0.26506,1.2431 -0.0701,0.35342 -0.15915,0.81772 -0.19743,1.0328 -0.0383,0.21513 -0.10746,0.63616 -0.15355,0.93595 -0.0464,0.29952 -0.11585,0.78475 -0.15356,1.0767 -0.038,0.29196 -0.0948,0.77509 -0.12613,1.0749 -0.0313,0.29949 -0.076,0.77087 -0.0987,1.0475 -0.0229,0.2766 -0.0532,0.72359 -0.0695,0.99262 -0.0162,0.26878 -0.042,0.80901 -0.0566,1.201 -0.0148,0.39171 -0.0274,1.096 -0.0274,1.5648 0,0.46854 0.0126,1.1728 0.0274,1.5648 0.0145,0.3917 0.0404,0.93197 0.0566,1.201 0.0162,0.26877 0.0535,0.78311 0.0842,1.1444 0.0307,0.36098 0.0873,0.93423 0.12612,1.2723 0.0385,0.33806 0.10249,0.84035 0.14076,1.1169 0.0386,0.2766 0.11979,0.8048 0.18098,1.1736 0.0612,0.3688 0.17816,1.012 0.26141,1.4277 0.0833,0.41601 0.20348,0.98039 0.2669,1.2559 0.0634,0.27575 0.15994,0.6769 0.21387,0.89207 0.0539,0.21513 0.15373,0.60003 0.22302,0.85369 0.0693,0.2534 0.21416,0.75568 0.32173,1.1169 0.10756,0.36097 0.28747,0.9324 0.40035,1.2705 0.11259,0.33807 0.30806,0.89604 0.43324,1.2394 0.12543,0.34309 0.34036,0.9073 0.47894,1.254 0.13886,0.347 0.35702,0.8711 0.48442,1.1645 0.12712,0.29336 0.32404,0.73394 0.43691,0.97982 0.11288,0.24586 0.36312,0.7688 0.55754,1.1608 0.19418,0.39198 0.48637,0.95934 0.64895,1.2613 0.1629,0.30202 0.37951,0.69738 0.48261,0.87928 0.10282,0.18216 0.29489,0.51374 0.42593,0.7367 0.13102,0.22268 0.39468,0.65459 0.58497,0.95971 0.19054,0.30509 0.53464,0.8381 0.76595,1.1846 0.23133,0.34644 0.57836,0.85166 0.77143,1.1224 0.19334,0.27045 0.48381,0.66777 0.64529,0.88294 0.16177,0.21513 0.4528,0.59136 0.64529,0.83724 0.19277,0.24586 0.5371,0.67199 0.76594,0.94692 0.22883,0.27492 0.5893,0.69837 0.80251,0.94144 0.21289,0.24306 0.54716,0.61603 0.74218,0.82809 0.19501,0.21177 0.69542,0.72781 1.1114,1.148 0.41574,0.42021 0.98819,0.9813 1.2723,1.2467 0.28441,0.26542 0.68135,0.62879 0.8811,0.80616 0.19976,0.17715 0.5519,0.48105 0.7824,0.67637 0.23049,0.19529 0.65679,0.54646 0.94875,0.78057 0.29197,0.23442 0.73921,0.58313 0.99262,0.77509 0.25369,0.19221 0.69384,0.51658 0.97799,0.72024 0.28442,0.2034 0.81307,0.56889 1.1754,0.81165 0.36209,0.24278 0.93953,0.61688 1.2851,0.83175 0.34532,0.21457 0.92288,0.56044 1.2833,0.76777 0.36043,0.20759 0.8703,0.49269 1.1316,0.63433 0.26122,0.14165 0.90158,0.46909 1.424,0.72755 0.52245,0.25845 1.2338,0.59456 1.5794,0.74767 0.34589,0.15339 0.84771,0.37014 1.1151,0.48077 0.26764,0.11092 0.66274,0.26998 0.87928,0.35464 0.2168,0.0844 0.64507,0.24598 0.9524,0.35829 0.30732,0.11231 0.80464,0.28697 1.1041,0.38754 0.29949,0.1006 0.73049,0.23881 0.95788,0.30894 0.22769,0.0704 0.67494,0.20323 0.99262,0.29431 0.31795,0.0908 0.82287,0.22818 1.1224,0.30528 0.29978,0.0774 0.7968,0.19776 1.1041,0.26872 0.30733,0.0707 0.89762,0.19699 1.3125,0.27969 0.41488,0.0827 1.0191,0.1947 1.3418,0.24862 0.3227,0.0536 0.85089,0.13515 1.1736,0.18098 0.32269,0.0461 0.80608,0.10973 1.0749,0.14075 0.26906,0.031 0.68512,0.0758 0.92316,0.0987 0.23831,0.0232 0.69055,0.0608 1.0054,0.0841 0.31516,0.0232 0.81744,0.0554 1.1169,0.0713 0.2998,0.0162 1.047,0.0365 1.6617,0.0457 0.6616,0.01 1.4898,0.005 2.0273,-0.0146 0.49955,-0.0179 1.1087,-0.0449 1.3546,-0.0604 0.24587,-0.0154 0.74815,-0.0534 1.1169,-0.084 0.36881,-0.031 0.94703,-0.0875 1.2851,-0.12614 0.33807,-0.0383 0.87832,-0.10771 1.201,-0.15355 0.32271,-0.046 0.85091,-0.12762 1.1736,-0.18097 0.3227,-0.0537 0.90805,-0.1618 1.2997,-0.23948 0.392,-0.0779 0.98228,-0.2037 1.3125,-0.27969 0.33024,-0.076 0.84668,-0.20047 1.1462,-0.27785 0.29977,-0.0774 0.80884,-0.21702 1.1316,-0.30894 0.32268,-0.0919 0.76813,-0.22292 0.99078,-0.29249 0.22296,-0.0693 0.68905,-0.22195 1.0347,-0.33818 0.34589,-0.11651 0.8982,-0.31242 1.2284,-0.43507 0.33024,-0.12265 0.82254,-0.3095 1.0913,-0.41679 0.26904,-0.10756 0.74539,-0.30688 1.0602,-0.44239 0.31516,-0.13549 0.8313,-0.36474 1.1462,-0.51002 0.31515,-0.14527 0.8313,-0.39448 1.1462,-0.55207 0.31516,-0.15729 0.77234,-0.39179 1.0182,-0.52281 0.24588,-0.13104 0.674,-0.36496 0.95058,-0.51916 0.2766,-0.15395 0.75476,-0.43038 1.0621,-0.61422 0.30733,-0.18412 0.7475,-0.45532 0.978,-0.60142 0.2305,-0.14612 0.69476,-0.44979 1.0328,-0.67637 0.33806,-0.22631 0.84744,-0.57904 1.1316,-0.7824 0.28442,-0.20367 0.72458,-0.52718 0.97799,-0.72024 0.25369,-0.19307 0.64384,-0.49587 0.8665,-0.67272 0.22295,-0.17685 0.5992,-0.48422 0.83723,-0.68368 0.23832,-0.19949 0.63554,-0.54083 0.88111,-0.7568 0.24558,-0.21597 0.61473,-0.54798 0.82261,-0.73853 0.20786,-0.19027 0.80654,-0.77532 1.329,-1.2997 0.52276,-0.52416 1.1704,-1.1977 1.4405,-1.4972 0.26989,-0.29978 0.65323,-0.73287 0.85186,-0.96336 0.19865,-0.23051 0.52415,-0.62118 0.7239,-0.8665 0.19976,-0.24529 0.55004,-0.68366 0.77692,-0.97616 0.22686,-0.29252 0.60367,-0.79605 0.83724,-1.1188 0.23356,-0.3227 0.62723,-0.88889 0.87562,-1.2577 0.24838,-0.36878 0.62276,-0.94362 0.83176,-1.2778 0.20898,-0.33388 0.52894,-0.8621 0.7111,-1.1736 0.18216,-0.31123 0.43875,-0.7619 0.57035,-0.99994 0.13131,-0.23831 0.38678,-0.71494 0.56668,-1.0602 0.17993,-0.34561 0.45793,-0.90473 0.6197,-1.2431 0.1615,-0.33834 0.3771,-0.79738 0.47712,-1.02 0.10002,-0.22268 0.26632,-0.60799 0.37109,-0.85552 0.10505,-0.24754 0.26905,-0.64448 0.36378,-0.88111 0.0947,-0.23636 0.26539,-0.68164 0.38023,-0.98897 0.11482,-0.30733 0.31613,-0.8717 0.44604,-1.2558 0.12992,-0.38417 0.31661,-0.9624 0.41496,-1.2851 0.0983,-0.32269 0.23587,-0.79587 0.30711,-1.0493 0.071,-0.25369 0.2106,-0.78007 0.30894,-1.1718 0.0981,-0.39197 0.22793,-0.93906 0.28882,-1.2156 0.0609,-0.27658 0.15603,-0.73066 0.21023,-1.0072 0.0542,-0.2766 0.13614,-0.72201 0.18281,-0.99079 0.0467,-0.26906 0.11611,-0.69009 0.15355,-0.93595 0.0377,-0.24587 0.0998,-0.69313 0.13893,-0.99263 0.0391,-0.29978 0.10248,-0.85211 0.14076,-1.2284 0.0385,-0.37662 0.0886,-0.94281 0.11151,-1.2577 0.0229,-0.31514 0.0577,-0.84831 0.0768,-1.1864 0.0201,-0.35342 0.0344,-1.2927 0.0347,-2.2083 0,-0.94294 -0.014,-1.8424 -0.0347,-2.2064 -0.0196,-0.33807 -0.0607,-0.94224 -0.0915,-1.3418 -0.0307,-0.39952 -0.0875,-1.0158 -0.12613,-1.3692 -0.0388,-0.35343 -0.10745,-0.91838 -0.15356,-1.2558 -0.0458,-0.33751 -0.14092,-0.9518 -0.21021,-1.3656 -0.0693,-0.41405 -0.18808,-1.0557 -0.26324,-1.4259 -0.0753,-0.37047 -0.19438,-0.92476 -0.26507,-1.2321 -0.0707,-0.30733 -0.19133,-0.80465 -0.26872,-1.1041 -0.0774,-0.2998 -0.23261,-0.86599 -0.3455,-1.2577 -0.11314,-0.39198 -0.27562,-0.93222 -0.36195,-1.201 -0.0863,-0.26905 -0.24594,-0.74722 -0.35463,-1.0621 -0.10868,-0.31516 -0.31821,-0.88632 -0.46433,-1.2705 -0.14612,-0.38416 -0.38486,-0.98153 -0.53012,-1.3272 -0.14557,-0.34589 -0.37169,-0.86885 -0.50271,-1.1608 -0.13103,-0.29196 -0.43515,-0.9323 -0.6782,-1.424 -0.24306,-0.49173 -0.55072,-1.0959 -0.68368,-1.3418 -0.13327,-0.24586 -0.35599,-0.64802 -0.4954,-0.8939 -0.1397,-0.24586 -0.40634,-0.69809 -0.59046,-1.0054 -0.18412,-0.30733 -0.51569,-0.84035 -0.73669,-1.1846 -0.22128,-0.3445 -0.5852,-0.89153 -0.80982,-1.2156 -0.22434,-0.32381 -0.56006,-0.79594 -0.74584,-1.0493 -0.18579,-0.25368 -0.51922,-0.69528 -0.74217,-0.98164 -0.22295,-0.28639 -0.55946,-0.70767 -0.74584,-0.93595 -0.18663,-0.22826 -0.51139,-0.61696 -0.72207,-0.86284 -0.21066,-0.24586 -0.60488,-0.69313 -0.87563,-0.99262 -0.27073,-0.29979 -0.93844,-0.99117 -1.4844,-1.5374 -0.54621,-0.54592 -1.2376,-1.2139 -1.5374,-1.4844 -0.29949,-0.27045 -0.74674,-0.66498 -0.99261,-0.87563 -0.24587,-0.21094 -0.75493,-0.62968 -1.1316,-0.93229 -0.37633,-0.30259 -0.95454,-0.75224 -1.2851,-0.99811 -0.33024,-0.24614 -0.80661,-0.59247 -1.0603,-0.7696 -0.2534,-0.17713 -0.68863,-0.47216 -0.9652,-0.65627 -0.27659,-0.18438 -0.78567,-0.51213 -1.1316,-0.72755 -0.34561,-0.21541 -0.92386,-0.56147 -1.2851,-0.7696 -0.36125,-0.20787 -0.92036,-0.51992 -1.2431,-0.69282 -0.32271,-0.17294 -0.89385,-0.4678 -1.2705,-0.65444 -0.37634,-0.18663 -0.88567,-0.43004 -1.1316,-0.54293 -0.24585,-0.11258 -0.68829,-0.30948 -0.98165,-0.43689 -0.29308,-0.1274 -0.81451,-0.34486 -1.159,-0.4826 -0.34421,-0.13774 -0.83922,-0.32828 -1.1005,-0.4241 -0.26124,-0.0956 -0.67019,-0.24241 -0.90853,-0.3254 -0.23804,-0.0833 -0.72826,-0.24402 -1.0895,-0.35829 -0.36126,-0.114 -0.87714,-0.2705 -1.1462,-0.34733 -0.26878,-0.0771 -0.72296,-0.20312 -1.0091,-0.27968 -0.2861,-0.0763 -0.82266,-0.20799 -1.1937,-0.29432 -0.37103,-0.0866 -0.92273,-0.20754 -1.2248,-0.26872 -0.30202,-0.0615 -0.78914,-0.15559 -1.0822,-0.20839 -0.29336,-0.0525 -0.82203,-0.13957 -1.1754,-0.19377 -0.35343,-0.0542 -0.90047,-0.12962 -1.2156,-0.16818 -0.31487,-0.0385 -0.81714,-0.0957 -1.1169,-0.12614 -0.29952,-0.0302 -0.80884,-0.0737 -1.1316,-0.0969 -0.32271,-0.0232 -0.81973,-0.0551 -1.1041,-0.0713 -0.28388,-0.0165 -1.1632,-0.0344 -1.9542,-0.0402 z m 17.686,25.245 c 0.22294,-0.0101 0.5819,-0.01 0.79702,0 0.21512,0.01 0.49129,0.0328 0.61421,0.0512 0.12293,0.0184 0.33969,0.0568 0.48077,0.0859 0.14138,0.0288 0.37246,0.0851 0.51551,0.12613 0.14305,0.0411 0.37357,0.11903 0.51185,0.17184 0.13829,0.0525 0.34754,0.13731 0.46432,0.19011 0.11678,0.0525 0.33084,0.16012 0.47529,0.23947 0.14444,0.0791 0.38065,0.22692 0.52647,0.32722 0.14612,0.10002 0.36018,0.25823 0.47529,0.35098 0.11538,0.0928 0.34222,0.30115 0.50453,0.46432 0.16204,0.16344 0.39595,0.43193 0.51917,0.59594 0.12321,0.164 0.3031,0.43095 0.40033,0.59411 0.0972,0.16315 0.23104,0.41859 0.29615,0.56669 0.065,0.14807 0.15738,0.38765 0.20656,0.53378 0.0489,0.14584 0.11452,0.36868 0.14442,0.49357 0.0296,0.12461 0.0724,0.35598 0.095,0.51551 0.0359,0.25285 0.0399,2.3345 0.0403,16.264 4.9e-4,13.849 -0.004,15.997 -0.0384,16.162 -0.0224,0.10477 -0.0654,0.26083 -0.0951,0.3455 -0.0294,0.0849 -0.0889,0.22301 -0.13161,0.3071 -0.0425,0.0844 -0.1281,0.22771 -0.19012,0.31991 -0.062,0.0922 -0.19527,0.25508 -0.29614,0.36012 -0.10086,0.10505 -0.26558,0.25162 -0.36561,0.32539 -0.0997,0.074 -0.26193,0.17923 -0.36195,0.23399 -0.0997,0.0545 -0.27085,0.13132 -0.37841,0.17183 -0.10757,0.0405 -0.2886,0.0971 -0.40399,0.12614 -0.11509,0.0294 -0.39127,0.0676 -0.61422,0.084 -0.26906,0.0199 -1.6481,0.0271 -4.1076,0.0201 l -3.7018,-0.0109 -0.25227,-0.0585 c -0.13829,-0.0319 -0.3335,-0.085 -0.43324,-0.11882 -0.0997,-0.0338 -0.28106,-0.11193 -0.404,-0.17366 -0.12293,-0.0618 -0.30608,-0.17035 -0.40582,-0.2413 -0.0997,-0.071 -0.27,-0.21727 -0.3784,-0.32539 -0.10813,-0.10813 -0.24818,-0.27158 -0.31077,-0.36378 -0.0626,-0.0922 -0.15799,-0.25862 -0.21388,-0.36926 -0.0556,-0.11092 -0.13696,-0.31292 -0.17914,-0.44787 l -0.0768,-0.24496 -0.009,-15.926 c -0.006,-11.367 0.002,-16.013 0.0238,-16.233 0.0169,-0.16904 0.0615,-0.45227 0.10054,-0.62885 0.0394,-0.17657 0.11483,-0.45301 0.16819,-0.61422 0.0534,-0.16148 0.17698,-0.4565 0.2742,-0.65626 0.0969,-0.19977 0.26436,-0.49505 0.37109,-0.65626 0.10672,-0.16149 0.25971,-0.37555 0.34184,-0.47529 0.0821,-0.0997 0.21951,-0.25569 0.30528,-0.34733 0.0858,-0.0917 0.25731,-0.26104 0.38023,-0.37475 0.12293,-0.11343 0.337,-0.28992 0.47529,-0.39302 0.1383,-0.10338 0.37775,-0.26541 0.53196,-0.36013 0.15423,-0.0944 0.43746,-0.24682 0.62884,-0.33817 0.19138,-0.0915 0.49744,-0.21755 0.68185,-0.28152 0.1844,-0.0637 0.48875,-0.15273 0.67455,-0.19743 0.18579,-0.0447 0.46903,-0.10156 0.62884,-0.12614 0.1601,-0.0249 0.47197,-0.0536 0.69466,-0.064 z m -18.063,8.7983 v 0.002 c 0.37578,-0.002 0.71299,0.0126 0.93595,0.0403 0.19166,0.0235 0.48934,0.0729 0.66174,0.11151 0.17212,0.0386 0.41029,0.0995 0.53014,0.13527 0.11957,0.036 0.34355,0.11245 0.49722,0.17001 0.15366,0.0573 0.44895,0.1911 0.65626,0.29613 0.20758,0.10506 0.50497,0.27574 0.66175,0.38023 0.15646,0.10422 0.38891,0.27135 0.5155,0.3711 0.12628,0.0997 0.35498,0.30953 0.51002,0.46431 0.1548,0.15506 0.36458,0.38532 0.46433,0.51186 0.10002,0.12657 0.25298,0.33835 0.34183,0.47162 0.0888,0.13327 0.23543,0.38826 0.3254,0.56487 0.09,0.17657 0.21117,0.44593 0.26872,0.59959 0.0573,0.15367 0.14047,0.4234 0.18462,0.59777 0.0442,0.17462 0.0993,0.46016 0.12248,0.63615 0.0366,0.27967 0.0423,1.7574 0.042,11.836 l -0.002,11.517 -0.0512,0.2541 c -0.029,0.13969 -0.0972,0.35715 -0.15173,0.4826 -0.0542,0.12517 -0.15868,0.31838 -0.23215,0.42958 -0.0738,0.11148 -0.2368,0.30569 -0.36195,0.43142 -0.1249,0.12573 -0.33598,0.29854 -0.46981,0.38572 -0.13383,0.0872 -0.34477,0.20255 -0.46797,0.25591 -0.12323,0.0534 -0.34494,0.12836 -0.49358,0.16636 -0.14862,0.0377 -0.42071,0.0809 -0.60507,0.0951 -0.18468,0.0145 -1.9108,0.0256 -3.8425,0.0256 -1.9912,0 -3.6568,-0.0103 -3.8535,-0.0256 -0.19669,-0.0154 -0.459,-0.0588 -0.60873,-0.0987 -0.14501,-0.0385 -0.36531,-0.11341 -0.48992,-0.16818 -0.1246,-0.055 -0.33412,-0.16944 -0.46431,-0.25409 -0.12992,-0.0849 -0.34441,-0.26342 -0.47712,-0.39669 -0.145,-0.14557 -0.30009,-0.33645 -0.38754,-0.47894 -0.0802,-0.13048 -0.18226,-0.33249 -0.22668,-0.44787 -0.0444,-0.11539 -0.1,-0.30563 -0.12431,-0.4241 l -0.0457,-0.21571 0.002,-11.548 c 2.8e-4,-10.028 0.005,-11.585 0.0403,-11.836 0.0225,-0.15953 0.0674,-0.39953 0.0987,-0.53196 0.031,-0.13243 0.1002,-0.37256 0.15356,-0.53378 0.0537,-0.16149 0.17868,-0.46021 0.27786,-0.66358 0.0989,-0.2034 0.26094,-0.49133 0.36013,-0.64163 0.0992,-0.15032 0.26264,-0.37728 0.36377,-0.50271 0.10114,-0.12546 0.28812,-0.33272 0.41497,-0.46067 0.12712,-0.12768 0.3375,-0.32189 0.46797,-0.43142 0.13076,-0.10951 0.37724,-0.29055 0.54658,-0.40399 0.16903,-0.11315 0.45725,-0.2837 0.64164,-0.37841 0.18412,-0.0944 0.41761,-0.20641 0.51733,-0.2486 0.10003,-0.0422 0.32048,-0.12286 0.49174,-0.18098 0.17127,-0.0578 0.48542,-0.14444 0.69831,-0.19194 0.21289,-0.0475 0.52064,-0.1049 0.68185,-0.12613 0.16148,-0.0209 0.55786,-0.0404 0.88112,-0.042 z m -18.608,8.791 c 0.12293,-0.003 0.40434,0.003 0.62701,0.0128 0.22268,0.0101 0.56787,0.0444 0.76594,0.0768 0.19838,0.0327 0.48105,0.0906 0.62885,0.12796 0.1478,0.0374 0.41912,0.11967 0.60325,0.18281 0.18412,0.0629 0.52449,0.20704 0.75498,0.3199 0.23049,0.11316 0.56873,0.3044 0.75315,0.42594 0.18438,0.12154 0.4485,0.31574 0.58679,0.43141 0.13829,0.11595 0.38354,0.34733 0.54475,0.51551 0.16148,0.16791 0.36436,0.39886 0.45152,0.51367 0.0872,0.1151 0.23119,0.32237 0.31809,0.46067 0.0872,0.1383 0.23105,0.40239 0.3199,0.5868 0.0888,0.1844 0.20155,0.4553 0.25044,0.60142 0.0489,0.14584 0.11878,0.38714 0.15539,0.53744 0.0366,0.15059 0.0869,0.43355 0.1115,0.62884 0.0397,0.31795 0.0439,1.1023 0.0366,7.5077 l -0.009,7.1531 -0.0768,0.24496 c -0.0422,0.13494 -0.12144,0.33695 -0.17731,0.44787 -0.0556,0.11064 -0.13953,0.2582 -0.18646,0.32722 -0.0467,0.069 -0.1473,0.19715 -0.22302,0.28516 -0.0754,0.0884 -0.23151,0.23558 -0.3455,0.32722 -0.11399,0.0916 -0.29119,0.21596 -0.39486,0.27604 -0.10336,0.0601 -0.30042,0.15363 -0.43873,0.20839 -0.13829,0.0549 -0.38326,0.12905 -0.54475,0.16452 l -0.29431,0.0658 h -3.954 c -3.0065,0 -3.9991,-0.008 -4.1496,-0.0347 -0.10869,-0.019 -0.31068,-0.0666 -0.44787,-0.10603 -0.13691,-0.0397 -0.3487,-0.1212 -0.47163,-0.18098 -0.12294,-0.0598 -0.3058,-0.16284 -0.40583,-0.2285 -0.0997,-0.0659 -0.27722,-0.21124 -0.39485,-0.32357 -0.11762,-0.11202 -0.27654,-0.2949 -0.35282,-0.40582 -0.0766,-0.11091 -0.17719,-0.27706 -0.22301,-0.36926 -0.046,-0.0922 -0.11046,-0.24941 -0.14259,-0.34915 -0.0321,-0.10004 -0.0708,-0.25696 -0.0877,-0.34916 -0.0218,-0.12014 -0.0286,-2.2379 -0.0219,-7.4602 l 0.0109,-7.292 0.0604,-0.27785 c 0.0335,-0.15255 0.0935,-0.39072 0.13345,-0.53013 0.0401,-0.13969 0.13053,-0.3922 0.19926,-0.56121 0.069,-0.16902 0.18158,-0.41428 0.25226,-0.54475 0.0704,-0.13076 0.21414,-0.36367 0.31809,-0.51733 0.1042,-0.15367 0.29019,-0.39937 0.41312,-0.54659 0.12293,-0.14751 0.32225,-0.35932 0.44239,-0.47162 0.12014,-0.11261 0.29876,-0.26953 0.39851,-0.34916 0.10002,-0.0799 0.30203,-0.22693 0.44787,-0.32722 0.14611,-0.10029 0.38387,-0.24815 0.5283,-0.32721 0.14444,-0.0793 0.3585,-0.18666 0.47529,-0.23948 0.11678,-0.0525 0.31214,-0.13376 0.43506,-0.18097 0.12294,-0.0472 0.37498,-0.13027 0.55938,-0.1828 0.18441,-0.0525 0.46736,-0.11945 0.62885,-0.14991 0.16148,-0.0305 0.43056,-0.0689 0.59959,-0.0859 0.16903,-0.017 0.40903,-0.0348 0.53196,-0.0384 z"
       id="icon" /></g></svg>